Hubballi-Regular-exp1.ufo
<glyph name="four" format="1">
  <advance width="541"/>
  <unicode hex="0034"/>
  <outline>
    <contour>
      <point x="405" y="522" type="curve" smooth="yes"/>
      <point x="405" y="27" type="line" smooth="yes"/>
      <point x="405" y="9"/>
      <point x="390" y="-6"/>
      <point x="372" y="-6" type="curve" smooth="yes"/>
      <point x="354" y="-6"/>
      <point x="339" y="9"/>
      <point x="339" y="27" type="curve" smooth="yes"/>
      <point x="339" y="522" type="line" smooth="yes"/>
      <point x="339" y="540"/>
      <point x="354" y="555"/>
      <point x="372" y="555" type="curve" smooth="yes"/>
      <point x="390" y="555"/>
      <point x="405" y="540"/>
    </contour>
    <contour>
      <point x="390" y="492" type="curve" smooth="yes"/>
      <point x="91" y="130" type="line" smooth="yes"/>
      <point x="80" y="116"/>
      <point x="59" y="114"/>
      <point x="45" y="126" type="curve" smooth="yes"/>
      <point x="31" y="137"/>
      <point x="29" y="158"/>
      <point x="41" y="172" type="curve" smooth="yes"/>
      <point x="340" y="534" type="line" smooth="yes"/>
      <point x="351" y="548"/>
      <point x="372" y="550"/>
      <point x="386" y="538" type="curve" smooth="yes"/>
      <point x="400" y="527"/>
      <point x="402" y="506"/>
    </contour>
    <contour>
      <point x="76" y="184" type="curve" smooth="yes"/>
      <point x="480" y="184" type="line" smooth="yes"/>
      <point x="498" y="184"/>
      <point x="513" y="169"/>
      <point x="513" y="151" type="curve" smooth="yes"/>
      <point x="513" y="133"/>
      <point x="498" y="118"/>
      <point x="480" y="118" type="curve" smooth="yes"/>
      <point x="76" y="118" type="line" smooth="yes"/>
      <point x="58" y="118"/>
      <point x="43" y="133"/>
      <point x="43" y="151" type="curve" smooth="yes"/>
      <point x="43" y="169"/>
      <point x="58" y="184"/>
    </contour>
  </outline>
</glyph>
<glyph name="equal" format="1">
  <advance width="491"/>
  <unicode hex="003D"/>
  <outline>
    <contour>
      <point x="92" y="376" type="curve" smooth="yes"/>
      <point x="398" y="376" type="line" smooth="yes"/>
      <point x="416" y="376"/>
      <point x="431" y="361"/>
      <point x="431" y="343" type="curve" smooth="yes"/>
      <point x="431" y="325"/>
      <point x="416" y="310"/>
      <point x="398" y="310" type="curve" smooth="yes"/>
      <point x="92" y="310" type="line" smooth="yes"/>
      <point x="74" y="310"/>
      <point x="59" y="325"/>
      <point x="59" y="343" type="curve" smooth="yes"/>
      <point x="59" y="361"/>
      <point x="74" y="376"/>
    </contour>
    <contour>
      <point x="92" y="196" type="curve" smooth="yes"/>
      <point x="398" y="196" type="line" smooth="yes"/>
      <point x="416" y="196"/>
      <point x="431" y="181"/>
      <point x="431" y="163" type="curve" smooth="yes"/>
      <point x="431" y="145"/>
      <point x="416" y="130"/>
      <point x="398" y="130" type="curve" smooth="yes"/>
      <point x="92" y="130" type="line" smooth="yes"/>
      <point x="74" y="130"/>
      <point x="59" y="145"/>
      <point x="59" y="163" type="curve" smooth="yes"/>
      <point x="59" y="181"/>
      <point x="74" y="196"/>
    </contour>
  </outline>
</glyph>
<glyph name="B" format="1">
  <advance width="521"/>
  <unicode hex="0042"/>
  <outline>
    <contour>
      <point x="137" y="320" type="curve" smooth="yes"/>
      <point x="276" y="320" type="line" smooth="yes"/>
      <point x="338" y="320"/>
      <point x="393" y="297"/>
      <point x="426" y="264" type="curve" smooth="yes"/>
      <point x="458" y="233"/>
      <point x="473" y="196"/>
      <point x="473" y="154" type="curve" smooth="yes"/>
      <point x="473" y="116"/>
      <point x="459" y="77"/>
      <point x="429" y="48" type="curve" smooth="yes"/>
      <point x="399" y="17"/>
      <point x="352" y="-6"/>
      <point x="273" y="-6" type="curve" smooth="yes"/>
      <point x="128" y="-6" type="line" smooth="yes"/>
      <point x="110" y="-6"/>
      <point x="95" y="9"/>
      <point x="95" y="27" type="curve" smooth="yes"/>
      <point x="95" y="512" type="line" smooth="yes"/>
      <point x="95" y="530"/>
      <point x="110" y="545"/>
      <point x="128" y="545" type="curve" smooth="yes"/>
      <point x="257" y="545" type="line" smooth="yes"/>
      <point x="319" y="545"/>
      <point x="360" y="524"/>
      <point x="385" y="498" type="curve" smooth="yes"/>
      <point x="409" y="475"/>
      <point x="425" y="435"/>
      <point x="425" y="401" type="curve" smooth="yes"/>
      <point x="425" y="363"/>
      <point x="409" y="326"/>
      <point x="385" y="303" type="curve" smooth="yes"/>
      <point x="363" y="281"/>
      <point x="321" y="258"/>
      <point x="270" y="254" type="curve" smooth="yes"/>
      <point x="253" y="253"/>
      <point x="236" y="267"/>
      <point x="235" y="285" type="curve" smooth="yes"/>
      <point x="234" y="302"/>
      <point x="248" y="319"/>
      <point x="266" y="320" type="curve" smooth="yes"/>
      <point x="297" y="322"/>
      <point x="325" y="335"/>
      <point x="339" y="349" type="curve" smooth="yes"/>
      <point x="351" y="362"/>
      <point x="359" y="381"/>
      <point x="359" y="401" type="curve" smooth="yes"/>
      <point x="359" y="419"/>
      <point x="351" y="439"/>
      <point x="339" y="452" type="curve" smooth="yes"/>
      <point x="322" y="468"/>
      <point x="295" y="479"/>
      <point x="257" y="479" type="curve" smooth="yes"/>
      <point x="128" y="479" type="line"/>
      <point x="161" y="512" type="line"/>
      <point x="161" y="27" type="line"/>
      <point x="128" y="60" type="line"/>
      <point x="273" y="60" type="line" smooth="yes"/>
      <point x="328" y="60"/>
      <point x="361" y="73"/>
      <point x="383" y="94" type="curve" smooth="yes"/>
      <point x="399" y="111"/>
      <point x="407" y="132"/>
      <point x="407" y="154" type="curve" smooth="yes"/>
      <point x="407" y="178"/>
      <point x="398" y="199"/>
      <point x="380" y="218" type="curve" smooth="yes"/>
      <point x="357" y="241"/>
      <point x="318" y="254"/>
      <point x="276" y="254" type="curve" smooth="yes"/>
      <point x="137" y="254" type="line" smooth="yes"/>
      <point x="119" y="254"/>
      <point x="104" y="269"/>
      <point x="104" y="287" type="curve" smooth="yes"/>
      <point x="104" y="305"/>
      <point x="119" y="320"/>
    </contour>
  </outline>
</glyph>
<glyph name="D" format="1">
  <advance width="617"/>
  <unicode hex="0044"/>
  <outline>
    <contour>
      <point x="304" y="-6" type="curve" smooth="yes"/>
      <point x="128" y="-6" type="line" smooth="yes"/>
      <point x="110" y="-6"/>
      <point x="95" y="9"/>
      <point x="95" y="27" type="curve" smooth="yes"/>
      <point x="95" y="512" type="line" smooth="yes"/>
      <point x="95" y="530"/>
      <point x="110" y="545"/>
      <point x="128" y="545" type="curve" smooth="yes"/>
      <point x="304" y="545" type="line" smooth="yes"/>
      <point x="440" y="545"/>
      <point x="564" y="433"/>
      <point x="564" y="270" type="curve" smooth="yes"/>
      <point x="564" y="115"/>
      <point x="461" y="-6"/>
    </contour>
    <contour>
      <point x="304" y="60" type="line" smooth="yes"/>
      <point x="423" y="60"/>
      <point x="498" y="155"/>
      <point x="498" y="270" type="curve" smooth="yes"/>
      <point x="498" y="391"/>
      <point x="408" y="479"/>
      <point x="304" y="479" type="curve" smooth="yes"/>
      <point x="128" y="479" type="line"/>
      <point x="161" y="512" type="line"/>
      <point x="161" y="27" type="line"/>
      <point x="128" y="60" type="line"/>
    </contour>
  </outline>
</glyph>
<glyph name="G" format="1">
  <advance width="618"/>
  <unicode hex="0047"/>
  <outline>
    <contour>
      <point x="469" y="463" type="curve" smooth="yes"/>
      <point x="431" y="478"/>
      <point x="386" y="488"/>
      <point x="335" y="488" type="curve" smooth="yes"/>
      <point x="210" y="488"/>
      <point x="119" y="399"/>
      <point x="119" y="266" type="curve" smooth="yes"/>
      <point x="119" y="147"/>
      <point x="197" y="51"/>
      <point x="332" y="51" type="curve" smooth="yes"/>
      <point x="401" y="51"/>
      <point x="452" y="69"/>
      <point x="493" y="95" type="curve" smooth="yes"/>
      <point x="508" y="104"/>
      <point x="529" y="100"/>
      <point x="539" y="85" type="curve" smooth="yes"/>
      <point x="548" y="70"/>
      <point x="544" y="49"/>
      <point x="529" y="39" type="curve" smooth="yes"/>
      <point x="478" y="7"/>
      <point x="417" y="-15"/>
      <point x="332" y="-15" type="curve" smooth="yes"/>
      <point x="155" y="-15"/>
      <point x="53" y="109"/>
      <point x="53" y="266" type="curve"/>
      <point x="53" y="439"/>
      <point x="172" y="554"/>
      <point x="335" y="554" type="curve" smooth="yes"/>
      <point x="396" y="554"/>
      <point x="447" y="542"/>
      <point x="493" y="525" type="curve" smooth="yes"/>
      <point x="509" y="518"/>
      <point x="518" y="499"/>
      <point x="512" y="482" type="curve" smooth="yes"/>
      <point x="505" y="466"/>
      <point x="486" y="457"/>
    </contour>
    <contour>
      <point x="479" y="77" type="curve" smooth="yes"/>
      <point x="479" y="251" type="line" smooth="yes"/>
      <point x="479" y="269"/>
      <point x="494" y="284"/>
      <point x="512" y="284" type="curve" smooth="yes"/>
      <point x="530" y="284"/>
      <point x="545" y="269"/>
      <point x="545" y="251" type="curve" smooth="yes"/>
      <point x="545" y="77" type="line" smooth="yes"/>
      <point x="545" y="59"/>
      <point x="530" y="44"/>
      <point x="512" y="44" type="curve" smooth="yes"/>
      <point x="494" y="44"/>
      <point x="479" y="59"/>
    </contour>
    <contour>
      <point x="501" y="218" type="curve" smooth="yes"/>
      <point x="348" y="218" type="line" smooth="yes"/>
      <point x="330" y="218"/>
      <point x="315" y="233"/>
      <point x="315" y="251" type="curve" smooth="yes"/>
      <point x="315" y="269"/>
      <point x="330" y="284"/>
      <point x="348" y="284" type="curve" smooth="yes"/>
      <point x="501" y="284" type="line" smooth="yes"/>
      <point x="519" y="284"/>
      <point x="534" y="269"/>
      <point x="534" y="251" type="curve" smooth="yes"/>
      <point x="534" y="233"/>
      <point x="519" y="218"/>
    </contour>
  </outline>
</glyph>
<glyph name="Z" format="1">
  <advance width="577"/>
  <unicode hex="005A"/>
  <outline>
    <contour>
      <point x="499" y="494" type="curve" smooth="yes"/>
      <point x="436" y="399"/>
      <point x="183" y="99"/>
      <point x="130" y="17" type="curve" smooth="yes"/>
      <point x="120" y="2"/>
      <point x="99" y="-2"/>
      <point x="84" y="7" type="curve" smooth="yes"/>
      <point x="69" y="17"/>
      <point x="65" y="38"/>
      <point x="74" y="53" type="curve" smooth="yes"/>
      <point x="127" y="135"/>
      <point x="380" y="435"/>
      <point x="443" y="530" type="curve" smooth="yes"/>
      <point x="453" y="545"/>
      <point x="474" y="549"/>
      <point x="489" y="540" type="curve" smooth="yes"/>
      <point x="504" y="530"/>
      <point x="508" y="509"/>
    </contour>
    <contour>
      <point x="111" y="545" type="curve" smooth="yes"/>
      <point x="460" y="545" type="line" smooth="yes"/>
      <point x="478" y="545"/>
      <point x="493" y="530"/>
      <point x="493" y="512" type="curve" smooth="yes"/>
      <point x="493" y="494"/>
      <point x="478" y="479"/>
      <point x="460" y="479" type="curve" smooth="yes"/>
      <point x="111" y="479" type="line" smooth="yes"/>
      <point x="93" y="479"/>
      <point x="78" y="494"/>
      <point x="78" y="512" type="curve" smooth="yes"/>
      <point x="78" y="530"/>
      <point x="93" y="545"/>
    </contour>
    <contour>
      <point x="98" y="60" type="curve" smooth="yes"/>
      <point x="483" y="60" type="line" smooth="yes"/>
      <point x="501" y="60"/>
      <point x="516" y="45"/>
      <point x="516" y="27" type="curve" smooth="yes"/>
      <point x="516" y="9"/>
      <point x="501" y="-6"/>
      <point x="483" y="-6" type="curve" smooth="yes"/>
      <point x="98" y="-6" type="line" smooth="yes"/>
      <point x="80" y="-6"/>
      <point x="65" y="9"/>
      <point x="65" y="27" type="curve" smooth="yes"/>
      <point x="65" y="45"/>
      <point x="80" y="60"/>
    </contour>
  </outline>
</glyph>
<glyph name="i" format="1">
  <advance width="217"/>
  <unicode hex="0069"/>
  <outline>
    <contour>
      <point x="109" y="610" type="curve" smooth="yes"/>
      <point x="134" y="610"/>
      <point x="159" y="589"/>
      <point x="159" y="551" type="curve" smooth="yes"/>
      <point x="159" y="513"/>
      <point x="135" y="494"/>
      <point x="109" y="494" type="curve" smooth="yes"/>
      <point x="81" y="494"/>
      <point x="57" y="515"/>
      <point x="57" y="551" type="curve"/>
      <point x="57" y="587"/>
      <point x="82" y="610"/>
    </contour>
    <contour>
      <point x="75" y="27" type="curve" smooth="yes"/>
      <point x="75" y="369" type="line" smooth="yes"/>
      <point x="75" y="387"/>
      <point x="90" y="402"/>
      <point x="108" y="402" type="curve" smooth="yes"/>
      <point x="126" y="402"/>
      <point x="141" y="387"/>
      <point x="141" y="369" type="curve" smooth="yes"/>
      <point x="141" y="27" type="line" smooth="yes"/>
      <point x="141" y="9"/>
      <point x="126" y="-6"/>
      <point x="108" y="-6" type="curve" smooth="yes"/>
      <point x="90" y="-6"/>
      <point x="75" y="9"/>
    </contour>
    <contour>
      <point x="109" y="544" type="curve" smooth="yes"/>
      <point x="112" y="544"/>
      <point x="123" y="541"/>
      <point x="123" y="551" type="curve" smooth="yes"/>
      <point x="123" y="561"/>
      <point x="114" y="560"/>
      <point x="109" y="560" type="curve" smooth="yes"/>
      <point x="105" y="560"/>
      <point x="93" y="563"/>
      <point x="93" y="551" type="curve" smooth="yes"/>
      <point x="93" y="539"/>
      <point x="106" y="544"/>
    </contour>
  </outline>
</glyph>
<glyph name="p" format="1">
  <advance width="513"/>
  <unicode hex="0070"/>
  <outline>
    <contour>
      <point x="82" y="-164" type="curve" smooth="yes"/>
      <point x="82" y="369" type="line" smooth="yes"/>
      <point x="82" y="387"/>
      <point x="97" y="402"/>
      <point x="115" y="402" type="curve" smooth="yes"/>
      <point x="133" y="402"/>
      <point x="148" y="387"/>
      <point x="148" y="369" type="curve" smooth="yes"/>
      <point x="148" y="-164" type="line" smooth="yes"/>
      <point x="148" y="-182"/>
      <point x="133" y="-197"/>
      <point x="115" y="-197" type="curve" smooth="yes"/>
      <point x="97" y="-197"/>
      <point x="82" y="-182"/>
    </contour>
    <contour>
      <point x="136" y="116" type="curve" smooth="yes"/>
      <point x="176" y="84"/>
      <point x="223" y="60"/>
      <point x="270" y="60" type="curve" smooth="yes"/>
      <point x="349" y="60"/>
      <point x="402" y="120"/>
      <point x="402" y="198" type="curve" smooth="yes"/>
      <point x="402" y="285"/>
      <point x="347" y="336"/>
      <point x="282" y="336" type="curve" smooth="yes"/>
      <point x="227" y="336"/>
      <point x="181" y="297"/>
      <point x="143" y="243" type="curve" smooth="yes"/>
      <point x="133" y="228"/>
      <point x="112" y="225"/>
      <point x="97" y="235" type="curve" smooth="yes"/>
      <point x="82" y="245"/>
      <point x="79" y="266"/>
      <point x="89" y="281" type="curve" smooth="yes"/>
      <point x="141" y="355"/>
      <point x="207" y="402"/>
      <point x="282" y="402" type="curve" smooth="yes"/>
      <point x="379" y="402"/>
      <point x="468" y="333"/>
      <point x="468" y="198" type="curve" smooth="yes"/>
      <point x="468" y="82"/>
      <point x="387" y="-6"/>
      <point x="270" y="-6" type="curve" smooth="yes"/>
      <point x="209" y="-6"/>
      <point x="146" y="22"/>
      <point x="94" y="66" type="curve" smooth="yes"/>
      <point x="80" y="77"/>
      <point x="78" y="98"/>
      <point x="90" y="112" type="curve" smooth="yes"/>
      <point x="101" y="126"/>
      <point x="122" y="128"/>
    </contour>
  </outline>
</glyph>
<glyph name="ordmasculine" format="1">
  <advance width="448"/>
  <unicode hex="00BA"/>
  <outline>
    <contour>
      <point x="224" y="544" type="curve" smooth="yes"/>
      <point x="313" y="544"/>
      <point x="370" y="476"/>
      <point x="370" y="395" type="curve" smooth="yes"/>
      <point x="370" y="312"/>
      <point x="313" y="250"/>
      <point x="224" y="250" type="curve" smooth="yes"/>
      <point x="135" y="250"/>
      <point x="77" y="312"/>
      <point x="77" y="395" type="curve" smooth="yes"/>
      <point x="77" y="476"/>
      <point x="133" y="544"/>
    </contour>
    <contour>
      <point x="224" y="478" type="curve" smooth="yes"/>
      <point x="173" y="478"/>
      <point x="143" y="440"/>
      <point x="143" y="395" type="curve" smooth="yes"/>
      <point x="143" y="350"/>
      <point x="175" y="316"/>
      <point x="224" y="316" type="curve" smooth="yes"/>
      <point x="273" y="316"/>
      <point x="304" y="350"/>
      <point x="304" y="395" type="curve" smooth="yes"/>
      <point x="304" y="440"/>
      <point x="273" y="478"/>
    </contour>
    <contour>
      <point x="103" y="201" type="curve" smooth="yes"/>
      <point x="352" y="201" type="line" smooth="yes"/>
      <point x="370" y="201"/>
      <point x="385" y="186"/>
      <point x="385" y="168" type="curve" smooth="yes"/>
      <point x="385" y="150"/>
      <point x="370" y="135"/>
      <point x="352" y="135" type="curve" smooth="yes"/>
      <point x="103" y="135" type="line" smooth="yes"/>
      <point x="85" y="135"/>
      <point x="70" y="150"/>
      <point x="70" y="168" type="curve" smooth="yes"/>
      <point x="70" y="186"/>
      <point x="85" y="201"/>
    </contour>
  </outline>
</glyph>
<glyph name="AE" format="1">
  <advance width="765"/>
  <unicode hex="00C6"/>
  <outline>
    <contour>
      <point x="406" y="493" type="curve" smooth="yes"/>
      <point x="303" y="344"/>
      <point x="158" y="135"/>
      <point x="76" y="9" type="curve" smooth="yes"/>
      <point x="66" y="-6"/>
      <point x="45" y="-10"/>
      <point x="30" y="-1" type="curve" smooth="yes"/>
      <point x="15" y="9"/>
      <point x="11" y="30"/>
      <point x="20" y="45" type="curve" smooth="yes"/>
      <point x="102" y="171"/>
      <point x="249" y="382"/>
      <point x="352" y="531" type="curve" smooth="yes"/>
      <point x="362" y="545"/>
      <point x="383" y="549"/>
      <point x="398" y="539" type="curve" smooth="yes"/>
      <point x="412" y="529"/>
      <point x="416" y="508"/>
    </contour>
    <contour>
      <point x="148" y="205" type="curve" smooth="yes"/>
      <point x="397" y="205" type="line" smooth="yes"/>
      <point x="415" y="205"/>
      <point x="430" y="190"/>
      <point x="430" y="172" type="curve" smooth="yes"/>
      <point x="430" y="154"/>
      <point x="415" y="139"/>
      <point x="397" y="139" type="curve" smooth="yes"/>
      <point x="148" y="139" type="line" smooth="yes"/>
      <point x="130" y="139"/>
      <point x="115" y="154"/>
      <point x="115" y="172" type="curve" smooth="yes"/>
      <point x="115" y="190"/>
      <point x="130" y="205"/>
    </contour>
    <contour>
      <point x="415" y="479" type="curve" smooth="yes"/>
      <point x="384" y="479" type="line" smooth="yes"/>
      <point x="366" y="479"/>
      <point x="351" y="494"/>
      <point x="351" y="512" type="curve" smooth="yes"/>
      <point x="351" y="530"/>
      <point x="366" y="545"/>
      <point x="384" y="545" type="curve" smooth="yes"/>
      <point x="415" y="545" type="line" smooth="yes"/>
      <point x="433" y="545"/>
      <point x="448" y="530"/>
      <point x="448" y="512" type="curve" smooth="yes"/>
      <point x="448" y="494"/>
      <point x="433" y="479"/>
    </contour>
    <component base="E" xOffset="270"/>
    <component base="E" xOffset="270"/>
  </outline>
</glyph>
<glyph name="eth" format="1">
  <advance width="506"/>
  <unicode hex="00F0"/>
  <outline>
    <contour>
      <point x="380" y="248" type="curve" smooth="yes"/>
      <point x="355" y="272"/>
      <point x="300" y="298"/>
      <point x="243" y="298" type="curve" smooth="yes"/>
      <point x="170" y="298"/>
      <point x="115" y="250"/>
      <point x="115" y="174" type="curve" smooth="yes"/>
      <point x="115" y="109"/>
      <point x="164" y="56"/>
      <point x="242" y="56" type="curve" smooth="yes"/>
      <point x="331" y="56"/>
      <point x="382" y="119"/>
      <point x="382" y="219" type="curve" smooth="yes"/>
      <point x="382" y="305"/>
      <point x="334" y="383"/>
      <point x="285" y="433" type="curve" smooth="yes"/>
      <point x="253" y="465"/>
      <point x="218" y="491"/>
      <point x="178" y="515" type="curve" smooth="yes"/>
      <point x="163" y="524"/>
      <point x="158" y="545"/>
      <point x="167" y="560" type="curve" smooth="yes"/>
      <point x="176" y="575"/>
      <point x="197" y="580"/>
      <point x="212" y="571" type="curve" smooth="yes"/>
      <point x="256" y="545"/>
      <point x="295" y="515"/>
      <point x="331" y="479" type="curve" smooth="yes"/>
      <point x="392" y="419"/>
      <point x="448" y="323"/>
      <point x="448" y="219" type="curve" smooth="yes"/>
      <point x="448" y="73"/>
      <point x="367" y="-10"/>
      <point x="242" y="-10" type="curve" smooth="yes"/>
      <point x="120" y="-10"/>
      <point x="49" y="75"/>
      <point x="49" y="174" type="curve"/>
      <point x="49" y="288"/>
      <point x="132" y="364"/>
      <point x="243" y="364" type="curve" smooth="yes"/>
      <point x="318" y="364"/>
      <point x="391" y="328"/>
      <point x="426" y="296" type="curve" smooth="yes"/>
      <point x="439" y="284"/>
      <point x="439" y="263"/>
      <point x="427" y="249" type="curve" smooth="yes"/>
      <point x="415" y="236"/>
      <point x="394" y="236"/>
    </contour>
    <contour>
      <point x="179" y="463" type="curve" smooth="yes"/>
      <point x="353" y="542" type="line" smooth="yes"/>
      <point x="370" y="549"/>
      <point x="390" y="542"/>
      <point x="397" y="526" type="curve" smooth="yes"/>
      <point x="404" y="509"/>
      <point x="397" y="489"/>
      <point x="381" y="482" type="curve" smooth="yes"/>
      <point x="207" y="403" type="line" smooth="yes"/>
      <point x="190" y="396"/>
      <point x="170" y="403"/>
      <point x="163" y="419" type="curve" smooth="yes"/>
      <point x="156" y="436"/>
      <point x="163" y="456"/>
    </contour>
  </outline>
</glyph>
<glyph name="knO" format="1">
  <advance width="723"/>
  <unicode hex="0C92"/>
  <outline>
    <contour>
      <point x="57" y="428" type="curve" smooth="yes"/>
      <point x="89" y="464"/>
      <point x="128" y="485"/>
      <point x="173" y="485" type="curve" smooth="yes"/>
      <point x="247" y="485"/>
      <point x="291" y="435"/>
      <point x="291" y="375" type="curve" smooth="yes"/>
      <point x="291" y="329"/>
      <point x="269" y="287"/>
      <point x="200" y="231" type="curve" smooth="yes"/>
      <point x="161" y="200"/>
      <point x="133" y="168"/>
      <point x="133" y="129" type="curve" smooth="yes"/>
      <point x="133" y="90"/>
      <point x="163" y="60"/>
      <point x="212" y="60" type="curve" smooth="yes"/>
      <point x="268" y="60"/>
      <point x="304" y="86"/>
      <point x="341" y="145" type="curve" smooth="yes"/>
      <point x="346" y="154"/>
      <point x="359" y="161"/>
      <point x="369" y="161" type="curve" smooth="yes"/>
      <point x="374" y="161" type="line" smooth="yes"/>
      <point x="384" y="161"/>
      <point x="396" y="154"/>
      <point x="402" y="146" type="curve" smooth="yes"/>
      <point x="436" y="92"/>
      <point x="474" y="60"/>
      <point x="535" y="60" type="curve" smooth="yes"/>
      <point x="585" y="60"/>
      <point x="617" y="93"/>
      <point x="617" y="134" type="curve" smooth="yes"/>
      <point x="617" y="166"/>
      <point x="606" y="193"/>
      <point x="583" y="213" type="curve" smooth="yes"/>
      <point x="570" y="225"/>
      <point x="568" y="246"/>
      <point x="580" y="260" type="curve" smooth="yes"/>
      <point x="592" y="273"/>
      <point x="613" y="275"/>
      <point x="627" y="263" type="curve" smooth="yes"/>
      <point x="664" y="231"/>
      <point x="683" y="188"/>
      <point x="683" y="134" type="curve" smooth="yes"/>
      <point x="683" y="59"/>
      <point x="629" y="-6"/>
      <point x="535" y="-6" type="curve" smooth="yes"/>
      <point x="450" y="-6"/>
      <point x="396" y="34"/>
      <point x="346" y="110" type="curve"/>
      <point x="374" y="95" type="line"/>
      <point x="369" y="95" type="line"/>
      <point x="397" y="111" type="line"/>
      <point x="344" y="26"/>
      <point x="290" y="-6"/>
      <point x="212" y="-6" type="curve" smooth="yes"/>
      <point x="115" y="-6"/>
      <point x="67" y="58"/>
      <point x="67" y="129" type="curve" smooth="yes"/>
      <point x="67" y="186"/>
      <point x="101" y="236"/>
      <point x="158" y="283" type="curve" smooth="yes"/>
      <point x="203" y="319"/>
      <point x="225" y="343"/>
      <point x="225" y="375" type="curve" smooth="yes"/>
      <point x="225" y="401"/>
      <point x="203" y="419"/>
      <point x="173" y="419" type="curve" smooth="yes"/>
      <point x="146" y="419"/>
      <point x="125" y="404"/>
      <point x="107" y="384" type="curve" smooth="yes"/>
      <point x="95" y="371"/>
      <point x="73" y="370"/>
      <point x="60" y="381" type="curve" smooth="yes"/>
      <point x="47" y="393"/>
      <point x="46" y="415"/>
    </contour>
  </outline>
</glyph>
<glyph name="knGHA" format="1">
  <advance width="827"/>
  <unicode hex="0C98"/>
  <outline>
    <contour>
      <point x="752" y="356" type="curve" smooth="yes"/>
      <point x="765" y="334"/>
      <point x="772" y="317"/>
      <point x="772" y="282" type="curve" smooth="yes"/>
      <point x="772" y="230"/>
      <point x="726" y="177"/>
      <point x="665" y="177" type="curve" smooth="yes"/>
      <point x="633" y="177"/>
      <point x="604" y="189"/>
      <point x="578" y="209" type="curve" smooth="yes"/>
      <point x="564" y="219"/>
      <point x="561" y="241"/>
      <point x="572" y="255" type="curve" smooth="yes"/>
      <point x="582" y="269"/>
      <point x="604" y="272"/>
      <point x="618" y="261" type="curve" smooth="yes"/>
      <point x="632" y="251"/>
      <point x="647" y="243"/>
      <point x="665" y="243" type="curve" smooth="yes"/>
      <point x="688" y="243"/>
      <point x="706" y="262"/>
      <point x="706" y="282" type="curve" smooth="yes"/>
      <point x="706" y="301"/>
      <point x="703" y="310"/>
      <point x="696" y="322" type="curve" smooth="yes"/>
      <point x="687" y="338"/>
      <point x="692" y="358"/>
      <point x="707" y="367" type="curve" smooth="yes"/>
      <point x="723" y="376"/>
      <point x="743" y="371"/>
    </contour>
    <contour>
      <point x="407" y="-89" type="curve" smooth="yes"/>
      <point x="407" y="-192" type="line" smooth="yes"/>
      <point x="407" y="-210"/>
      <point x="392" y="-225"/>
      <point x="374" y="-225" type="curve" smooth="yes"/>
      <point x="356" y="-225"/>
      <point x="341" y="-210"/>
      <point x="341" y="-192" type="curve" smooth="yes"/>
      <point x="341" y="-89" type="line" smooth="yes"/>
      <point x="341" y="-71"/>
      <point x="356" y="-56"/>
      <point x="374" y="-56" type="curve" smooth="yes"/>
      <point x="392" y="-56"/>
      <point x="407" y="-71"/>
    </contour>
    <contour>
      <point x="96" y="470" type="curve" smooth="yes"/>
      <point x="531" y="470" type="line" smooth="yes"/>
      <point x="590" y="470"/>
      <point x="625" y="490"/>
      <point x="651" y="532" type="curve" smooth="yes"/>
      <point x="660" y="547"/>
      <point x="681" y="552"/>
      <point x="696" y="543" type="curve" smooth="yes"/>
      <point x="711" y="534"/>
      <point x="716" y="513"/>
      <point x="707" y="498" type="curve" smooth="yes"/>
      <point x="669" y="436"/>
      <point x="618" y="404"/>
      <point x="531" y="404" type="curve" smooth="yes"/>
      <point x="96" y="404" type="line" smooth="yes"/>
      <point x="78" y="404"/>
      <point x="63" y="419"/>
      <point x="63" y="437" type="curve" smooth="yes"/>
      <point x="63" y="455"/>
      <point x="78" y="470"/>
    </contour>
    <contour>
      <point x="194" y="187" type="curve" smooth="yes"/>
      <point x="152" y="181"/>
      <point x="126" y="156"/>
      <point x="126" y="122" type="curve" smooth="yes"/>
      <point x="126" y="84"/>
      <point x="162" y="58"/>
      <point x="212" y="58" type="curve" smooth="yes"/>
      <point x="269" y="58"/>
      <point x="305" y="89"/>
      <point x="344" y="147" type="curve" smooth="yes"/>
      <point x="349" y="155"/>
      <point x="361" y="161"/>
      <point x="371" y="161" type="curve" smooth="yes"/>
      <point x="376" y="161" type="line" smooth="yes"/>
      <point x="386" y="161"/>
      <point x="398" y="154"/>
      <point x="404" y="146" type="curve" smooth="yes"/>
      <point x="438" y="92"/>
      <point x="476" y="60"/>
      <point x="537" y="60" type="curve" smooth="yes"/>
      <point x="586" y="60"/>
      <point x="619" y="91"/>
      <point x="619" y="129" type="curve" smooth="yes"/>
      <point x="619" y="165"/>
      <point x="597" y="194"/>
      <point x="571" y="213" type="curve" smooth="yes"/>
      <point x="557" y="224"/>
      <point x="554" y="245"/>
      <point x="564" y="260" type="curve" smooth="yes"/>
      <point x="575" y="274"/>
      <point x="596" y="277"/>
      <point x="611" y="267" type="curve" smooth="yes"/>
      <point x="653" y="236"/>
      <point x="685" y="187"/>
      <point x="685" y="129" type="curve" smooth="yes"/>
      <point x="685" y="61"/>
      <point x="632" y="-6"/>
      <point x="537" y="-6" type="curve" smooth="yes"/>
      <point x="452" y="-6"/>
      <point x="398" y="34"/>
      <point x="348" y="110" type="curve"/>
      <point x="376" y="95" type="line"/>
      <point x="371" y="95" type="line"/>
      <point x="398" y="109" type="line"/>
      <point x="343" y="29"/>
      <point x="291" y="-8"/>
      <point x="212" y="-8" type="curve" smooth="yes"/>
      <point x="110" y="-8"/>
      <point x="60" y="54"/>
      <point x="60" y="122" type="curve"/>
      <point x="60" y="184"/>
      <point x="102" y="241"/>
      <point x="184" y="253" type="curve" smooth="yes"/>
      <point x="202" y="255"/>
      <point x="219" y="242"/>
      <point x="222" y="225" type="curve" smooth="yes"/>
      <point x="224" y="207"/>
      <point x="211" y="190"/>
    </contour>
    <contour>
      <point x="339" y="410" type="curve" smooth="yes"/>
      <point x="321" y="393"/>
      <point x="314" y="373"/>
      <point x="314" y="356" type="curve" smooth="yes"/>
      <point x="314" y="328"/>
      <point x="338" y="306"/>
      <point x="373" y="306" type="curve" smooth="yes"/>
      <point x="409" y="306"/>
      <point x="432" y="328"/>
      <point x="432" y="357" type="curve" smooth="yes"/>
      <point x="432" y="374"/>
      <point x="425" y="394"/>
      <point x="407" y="412" type="curve" smooth="yes"/>
      <point x="394" y="424"/>
      <point x="393" y="445"/>
      <point x="405" y="458" type="curve" smooth="yes"/>
      <point x="417" y="471"/>
      <point x="438" y="472"/>
      <point x="451" y="460" type="curve" smooth="yes"/>
      <point x="487" y="428"/>
      <point x="498" y="390"/>
      <point x="498" y="357" type="curve" smooth="yes"/>
      <point x="498" y="296"/>
      <point x="457" y="240"/>
      <point x="373" y="240" type="curve" smooth="yes"/>
      <point x="292" y="240"/>
      <point x="248" y="298"/>
      <point x="248" y="356" type="curve" smooth="yes"/>
      <point x="248" y="389"/>
      <point x="261" y="427"/>
      <point x="295" y="458" type="curve" smooth="yes"/>
      <point x="308" y="470"/>
      <point x="329" y="469"/>
      <point x="341" y="456" type="curve" smooth="yes"/>
      <point x="353" y="443"/>
      <point x="352" y="422"/>
    </contour>
    <component base="knPha" xOffset="15"/>
    <component base="knPha" xOffset="15"/>
  </outline>
</glyph>
<glyph name="knJHA" format="1">
  <advance width="1229"/>
  <unicode hex="0C9D"/>
  <outline>
    <contour>
      <point x="80" y="227" type="curve" smooth="yes"/>
      <point x="80" y="355"/>
      <point x="185" y="470"/>
      <point x="323" y="470" type="curve" smooth="yes"/>
      <point x="463" y="470"/>
      <point x="562" y="353"/>
      <point x="562" y="227" type="curve" smooth="yes"/>
      <point x="562" y="94"/>
      <point x="469" y="-10"/>
      <point x="321" y="-10" type="curve" smooth="yes"/>
      <point x="176" y="-10"/>
      <point x="80" y="91"/>
    </contour>
    <contour>
      <point x="865" y="-89" type="curve" smooth="yes"/>
      <point x="865" y="-192" type="line" smooth="yes"/>
      <point x="865" y="-210"/>
      <point x="850" y="-225"/>
      <point x="832" y="-225" type="curve" smooth="yes"/>
      <point x="814" y="-225"/>
      <point x="799" y="-210"/>
      <point x="799" y="-192" type="curve" smooth="yes"/>
      <point x="799" y="-89" type="line" smooth="yes"/>
      <point x="799" y="-71"/>
      <point x="814" y="-56"/>
      <point x="832" y="-56" type="curve" smooth="yes"/>
      <point x="850" y="-56"/>
      <point x="865" y="-71"/>
    </contour>
    <contour>
      <point x="84" y="470" type="curve" smooth="yes"/>
      <point x="442" y="470" type="line" smooth="yes"/>
      <point x="501" y="470"/>
      <point x="536" y="490"/>
      <point x="562" y="532" type="curve" smooth="yes"/>
      <point x="571" y="547"/>
      <point x="592" y="552"/>
      <point x="607" y="543" type="curve" smooth="yes"/>
      <point x="622" y="534"/>
      <point x="627" y="513"/>
      <point x="618" y="498" type="curve" smooth="yes"/>
      <point x="580" y="436"/>
      <point x="529" y="404"/>
      <point x="442" y="404" type="curve" smooth="yes"/>
      <point x="84" y="404" type="line" smooth="yes"/>
      <point x="66" y="404"/>
      <point x="51" y="419"/>
      <point x="51" y="437" type="curve" smooth="yes"/>
      <point x="51" y="455"/>
      <point x="66" y="470"/>
    </contour>
    <contour>
      <point x="146" y="227" type="curve" smooth="yes"/>
      <point x="146" y="129"/>
      <point x="216" y="56"/>
      <point x="321" y="56" type="curve" smooth="yes"/>
      <point x="427" y="56"/>
      <point x="496" y="130"/>
      <point x="496" y="227" type="curve" smooth="yes"/>
      <point x="496" y="319"/>
      <point x="425" y="404"/>
      <point x="323" y="404" type="curve" smooth="yes"/>
      <point x="223" y="404"/>
      <point x="146" y="321"/>
    </contour>
    <component base="knRa" xOffset="63" yOffset="-132"/>
    <component base="knsignU" xOffset="617"/>
    <component base="knsignU" xOffset="928"/>
    <component base="knRa" xOffset="63" yOffset="-132"/>
    <component base="knsignU" xOffset="617"/>
    <component base="knsignU" xOffset="928"/>
  </outline>
</glyph>
<glyph name="knPA" format="1">
  <advance width="726"/>
  <unicode hex="0CAA"/>
  <outline>
    <contour>
      <point x="96" y="470" type="curve" smooth="yes"/>
      <point x="511" y="470" type="line" smooth="yes"/>
      <point x="570" y="470"/>
      <point x="605" y="490"/>
      <point x="631" y="532" type="curve" smooth="yes"/>
      <point x="640" y="547"/>
      <point x="661" y="552"/>
      <point x="676" y="543" type="curve" smooth="yes"/>
      <point x="691" y="534"/>
      <point x="696" y="513"/>
      <point x="687" y="498" type="curve" smooth="yes"/>
      <point x="649" y="436"/>
      <point x="598" y="404"/>
      <point x="511" y="404" type="curve" smooth="yes"/>
      <point x="96" y="404" type="line" smooth="yes"/>
      <point x="78" y="404"/>
      <point x="63" y="419"/>
      <point x="63" y="437" type="curve" smooth="yes"/>
      <point x="63" y="455"/>
      <point x="78" y="470"/>
    </contour>
    <contour>
      <point x="404" y="146" type="curve" smooth="yes"/>
      <point x="438" y="92"/>
      <point x="476" y="60"/>
      <point x="537" y="60" type="curve" smooth="yes"/>
      <point x="589" y="60"/>
      <point x="619" y="96"/>
      <point x="619" y="145" type="curve" smooth="yes"/>
      <point x="619" y="175"/>
      <point x="610" y="204"/>
      <point x="600" y="226" type="curve" smooth="yes"/>
      <point x="593" y="242"/>
      <point x="600" y="262"/>
      <point x="616" y="270" type="curve" smooth="yes"/>
      <point x="632" y="277"/>
      <point x="652" y="270"/>
      <point x="660" y="254" type="curve" smooth="yes"/>
      <point x="674" y="224"/>
      <point x="685" y="185"/>
      <point x="685" y="145" type="curve" smooth="yes"/>
      <point x="685" y="56"/>
      <point x="629" y="-6"/>
      <point x="537" y="-6" type="curve" smooth="yes"/>
      <point x="452" y="-6"/>
      <point x="398" y="34"/>
      <point x="348" y="110" type="curve" smooth="yes"/>
      <point x="339" y="125"/>
      <point x="343" y="146"/>
      <point x="358" y="156" type="curve" smooth="yes"/>
      <point x="373" y="165"/>
      <point x="394" y="161"/>
    </contour>
    <contour>
      <point x="194" y="187" type="curve" smooth="yes"/>
      <point x="152" y="181"/>
      <point x="126" y="156"/>
      <point x="126" y="122" type="curve" smooth="yes"/>
      <point x="126" y="84"/>
      <point x="162" y="58"/>
      <point x="212" y="58" type="curve" smooth="yes"/>
      <point x="269" y="58"/>
      <point x="305" y="89"/>
      <point x="344" y="147" type="curve" smooth="yes"/>
      <point x="354" y="161"/>
      <point x="375" y="165"/>
      <point x="390" y="155" type="curve" smooth="yes"/>
      <point x="404" y="145"/>
      <point x="408" y="124"/>
      <point x="398" y="109" type="curve" smooth="yes"/>
      <point x="343" y="29"/>
      <point x="291" y="-8"/>
      <point x="212" y="-8" type="curve" smooth="yes"/>
      <point x="110" y="-8"/>
      <point x="60" y="54"/>
      <point x="60" y="122" type="curve"/>
      <point x="60" y="184"/>
      <point x="102" y="241"/>
      <point x="184" y="253" type="curve" smooth="yes"/>
      <point x="202" y="255"/>
      <point x="219" y="242"/>
      <point x="222" y="225" type="curve" smooth="yes"/>
      <point x="224" y="207"/>
      <point x="211" y="190"/>
    </contour>
    <contour>
      <point x="339" y="410" type="curve" smooth="yes"/>
      <point x="321" y="393"/>
      <point x="314" y="373"/>
      <point x="314" y="356" type="curve" smooth="yes"/>
      <point x="314" y="328"/>
      <point x="338" y="306"/>
      <point x="373" y="306" type="curve" smooth="yes"/>
      <point x="409" y="306"/>
      <point x="432" y="328"/>
      <point x="432" y="357" type="curve" smooth="yes"/>
      <point x="432" y="374"/>
      <point x="425" y="394"/>
      <point x="407" y="412" type="curve" smooth="yes"/>
      <point x="394" y="424"/>
      <point x="393" y="445"/>
      <point x="405" y="458" type="curve" smooth="yes"/>
      <point x="417" y="471"/>
      <point x="438" y="472"/>
      <point x="451" y="460" type="curve" smooth="yes"/>
      <point x="487" y="428"/>
      <point x="498" y="390"/>
      <point x="498" y="357" type="curve" smooth="yes"/>
      <point x="498" y="296"/>
      <point x="457" y="240"/>
      <point x="373" y="240" type="curve" smooth="yes"/>
      <point x="292" y="240"/>
      <point x="248" y="298"/>
      <point x="248" y="356" type="curve" smooth="yes"/>
      <point x="248" y="389"/>
      <point x="261" y="427"/>
      <point x="295" y="458" type="curve" smooth="yes"/>
      <point x="308" y="470"/>
      <point x="329" y="469"/>
      <point x="341" y="456" type="curve" smooth="yes"/>
      <point x="353" y="443"/>
      <point x="352" y="422"/>
    </contour>
  </outline>
</glyph>
<glyph name="knNine" format="1">
  <advance width="493"/>
  <unicode hex="0CEF"/>
  <outline>
    <contour>
      <point x="429" y="404" type="curve" smooth="yes"/>
      <point x="227" y="404" type="line" smooth="yes"/>
      <point x="156" y="404"/>
      <point x="110" y="367"/>
      <point x="110" y="300" type="curve" smooth="yes"/>
      <point x="110" y="241"/>
      <point x="171" y="190"/>
      <point x="254" y="190" type="curve" smooth="yes"/>
      <point x="290" y="190"/>
      <point x="315" y="206"/>
      <point x="315" y="230" type="curve" smooth="yes"/>
      <point x="315" y="252"/>
      <point x="287" y="266"/>
      <point x="257" y="266" type="curve" smooth="yes"/>
      <point x="200" y="266"/>
      <point x="170" y="224"/>
      <point x="170" y="180" type="curve" smooth="yes"/>
      <point x="170" y="139"/>
      <point x="186" y="110"/>
      <point x="205" y="91" type="curve" smooth="yes"/>
      <point x="221" y="76"/>
      <point x="239" y="65"/>
      <point x="256" y="56" type="curve" smooth="yes"/>
      <point x="271" y="47"/>
      <point x="276" y="26"/>
      <point x="268" y="10" type="curve" smooth="yes"/>
      <point x="259" y="-5"/>
      <point x="238" y="-10"/>
      <point x="222" y="-2" type="curve" smooth="yes"/>
      <point x="201" y="11"/>
      <point x="179" y="24"/>
      <point x="159" y="45" type="curve" smooth="yes"/>
      <point x="130" y="74"/>
      <point x="104" y="117"/>
      <point x="104" y="180" type="curve" smooth="yes"/>
      <point x="104" y="257"/>
      <point x="156" y="332"/>
      <point x="257" y="332" type="curve" smooth="yes"/>
      <point x="341" y="332"/>
      <point x="381" y="276"/>
      <point x="381" y="230" type="curve" smooth="yes"/>
      <point x="381" y="180"/>
      <point x="348" y="124"/>
      <point x="254" y="124" type="curve" smooth="yes"/>
      <point x="121" y="124"/>
      <point x="44" y="213"/>
      <point x="44" y="300" type="curve"/>
      <point x="44" y="405"/>
      <point x="112" y="470"/>
      <point x="227" y="470" type="curve" smooth="yes"/>
      <point x="429" y="470" type="line" smooth="yes"/>
      <point x="447" y="470"/>
      <point x="462" y="455"/>
      <point x="462" y="437" type="curve" smooth="yes"/>
      <point x="462" y="419"/>
      <point x="447" y="404"/>
    </contour>
  </outline>
</glyph>
<glyph name="quoteright" format="1">
  <advance width="235"/>
  <unicode hex="2019"/>
  <outline>
    <contour>
      <point x="145" y="591" type="curve" smooth="yes"/>
      <point x="150" y="577"/>
      <point x="153" y="555"/>
      <point x="153" y="532" type="curve" smooth="yes"/>
      <point x="153" y="479"/>
      <point x="135" y="426"/>
      <point x="104" y="385" type="curve" smooth="yes"/>
      <point x="94" y="371"/>
      <point x="73" y="368"/>
      <point x="58" y="379" type="curve" smooth="yes"/>
      <point x="44" y="389"/>
      <point x="41" y="410"/>
      <point x="52" y="425" type="curve" smooth="yes"/>
      <point x="73" y="454"/>
      <point x="87" y="493"/>
      <point x="87" y="532" type="curve" smooth="yes"/>
      <point x="87" y="547"/>
      <point x="86" y="561"/>
      <point x="83" y="571" type="curve" smooth="yes"/>
      <point x="77" y="587"/>
      <point x="87" y="607"/>
      <point x="104" y="612" type="curve" smooth="yes"/>
      <point x="120" y="618"/>
      <point x="140" y="608"/>
    </contour>
  </outline>
</glyph>
<glyph name="fraction" format="1">
  <advance width="464"/>
  <unicode hex="2044"/>
  <outline>
    <contour>
      <point x="405" y="495" type="curve" smooth="yes"/>
      <point x="122" y="10" type="line" smooth="yes"/>
      <point x="113" y="-5"/>
      <point x="92" y="-10"/>
      <point x="76" y="-2" type="curve" smooth="yes"/>
      <point x="61" y="7"/>
      <point x="56" y="28"/>
      <point x="64" y="44" type="curve" smooth="yes"/>
      <point x="347" y="529" type="line" smooth="yes"/>
      <point x="356" y="544"/>
      <point x="377" y="549"/>
      <point x="393" y="541" type="curve" smooth="yes"/>
      <point x="408" y="532"/>
      <point x="413" y="511"/>
    </contour>
  </outline>
</glyph>
<glyph name="radical" format="1">
  <advance width="547"/>
  <unicode hex="221A"/>
  <outline>
    <contour>
      <point x="169" y="332" type="curve" smooth="yes"/>
      <point x="208" y="244"/>
      <point x="270" y="112"/>
      <point x="307" y="38" type="curve" smooth="yes"/>
      <point x="315" y="22"/>
      <point x="309" y="2"/>
      <point x="293" y="-6" type="curve" smooth="yes"/>
      <point x="277" y="-14"/>
      <point x="257" y="-8"/>
      <point x="249" y="8" type="curve" smooth="yes"/>
      <point x="210" y="82"/>
      <point x="148" y="216"/>
      <point x="109" y="306" type="curve" smooth="yes"/>
      <point x="102" y="322"/>
      <point x="109" y="342"/>
      <point x="126" y="349" type="curve" smooth="yes"/>
      <point x="142" y="356"/>
      <point x="162" y="349"/>
    </contour>
    <contour>
      <point x="250" y="28" type="curve" smooth="yes"/>
      <point x="296" y="155"/>
      <point x="392" y="446"/>
      <point x="435" y="609" type="curve" smooth="yes"/>
      <point x="440" y="627"/>
      <point x="458" y="637"/>
      <point x="475" y="633" type="curve" smooth="yes"/>
      <point x="493" y="628"/>
      <point x="503" y="610"/>
      <point x="499" y="593" type="curve" smooth="yes"/>
      <point x="456" y="428"/>
      <point x="358" y="133"/>
      <point x="312" y="6" type="curve" smooth="yes"/>
      <point x="306" y="-11"/>
      <point x="287" y="-20"/>
      <point x="270" y="-14" type="curve" smooth="yes"/>
      <point x="253" y="-8"/>
      <point x="244" y="11"/>
    </contour>
    <contour>
      <point x="144" y="298" type="curve" smooth="yes"/>
      <point x="78" y="278" type="line" smooth="yes"/>
      <point x="61" y="273"/>
      <point x="42" y="283"/>
      <point x="36" y="300" type="curve" smooth="yes"/>
      <point x="31" y="317"/>
      <point x="41" y="336"/>
      <point x="58" y="342" type="curve" smooth="yes"/>
      <point x="124" y="362" type="line" smooth="yes"/>
      <point x="141" y="367"/>
      <point x="160" y="357"/>
      <point x="166" y="340" type="curve" smooth="yes"/>
      <point x="171" y="323"/>
      <point x="161" y="304"/>
    </contour>
  </outline>
</glyph>
<glyph name="greaterequal" format="1">
  <advance width="491"/>
  <unicode hex="2265"/>
  <outline>
    <contour>
      <point x="92" y="116" type="curve" smooth="yes"/>
      <point x="398" y="116" type="line" smooth="yes"/>
      <point x="416" y="116"/>
      <point x="431" y="101"/>
      <point x="431" y="83" type="curve" smooth="yes"/>
      <point x="431" y="65"/>
      <point x="416" y="50"/>
      <point x="398" y="50" type="curve" smooth="yes"/>
      <point x="92" y="50" type="line" smooth="yes"/>
      <point x="74" y="50"/>
      <point x="59" y="65"/>
      <point x="59" y="83" type="curve" smooth="yes"/>
      <point x="59" y="101"/>
      <point x="74" y="116"/>
    </contour>
    <contour>
      <point x="403" y="263" type="curve" smooth="yes"/>
      <point x="121" y="163" type="line" smooth="yes"/>
      <point x="104" y="157"/>
      <point x="85" y="166"/>
      <point x="79" y="183" type="curve" smooth="yes"/>
      <point x="73" y="200"/>
      <point x="82" y="219"/>
      <point x="99" y="225" type="curve" smooth="yes"/>
      <point x="381" y="325" type="line" smooth="yes"/>
      <point x="398" y="331"/>
      <point x="417" y="322"/>
      <point x="423" y="305" type="curve" smooth="yes"/>
      <point x="429" y="288"/>
      <point x="420" y="269"/>
    </contour>
    <contour>
      <point x="116" y="432" type="curve" smooth="yes"/>
      <point x="408" y="328" type="line" smooth="yes"/>
      <point x="425" y="322"/>
      <point x="434" y="303"/>
      <point x="428" y="286" type="curve" smooth="yes"/>
      <point x="422" y="269"/>
      <point x="403" y="260"/>
      <point x="386" y="266" type="curve" smooth="yes"/>
      <point x="94" y="370" type="line" smooth="yes"/>
      <point x="77" y="376"/>
      <point x="68" y="395"/>
      <point x="74" y="412" type="curve" smooth="yes"/>
      <point x="80" y="429"/>
      <point x="99" y="438"/>
    </contour>
  </outline>
</glyph>
<glyph name="knCAc2" format="1">
  <advance width="0"/>
  <outline>
    <contour>
      <point x="-32" y="-209" type="curve" smooth="yes"/>
      <point x="174" y="-209" type="line" smooth="yes"/>
      <point x="190" y="-209"/>
      <point x="204" y="-223"/>
      <point x="204" y="-239" type="curve" smooth="yes"/>
      <point x="204" y="-255"/>
      <point x="190" y="-269"/>
      <point x="174" y="-269" type="curve" smooth="yes"/>
      <point x="-32" y="-269" type="line" smooth="yes"/>
      <point x="-48" y="-269"/>
      <point x="-62" y="-255"/>
      <point x="-62" y="-239" type="curve" smooth="yes"/>
      <point x="-62" y="-223"/>
      <point x="-48" y="-209"/>
    </contour>
    <contour>
      <point x="-30" y="-101" type="curve" smooth="yes"/>
      <point x="68" y="-101" type="line" smooth="yes"/>
      <point x="109" y="-101"/>
      <point x="134" y="-89"/>
      <point x="152" y="-62" type="curve" smooth="yes"/>
      <point x="161" y="-49"/>
      <point x="181" y="-45"/>
      <point x="194" y="-54" type="curve" smooth="yes"/>
      <point x="207" y="-63"/>
      <point x="211" y="-83"/>
      <point x="202" y="-96" type="curve" smooth="yes"/>
      <point x="172" y="-139"/>
      <point x="135" y="-161"/>
      <point x="68" y="-161" type="curve" smooth="yes"/>
      <point x="-30" y="-161" type="line" smooth="yes"/>
      <point x="-46" y="-161"/>
      <point x="-60" y="-147"/>
      <point x="-60" y="-131" type="curve" smooth="yes"/>
      <point x="-60" y="-115"/>
      <point x="-46" y="-101"/>
    </contour>
    <contour>
      <point x="49" y="-225" type="curve" smooth="yes"/>
      <point x="49" y="-150" type="line" smooth="yes"/>
      <point x="49" y="-134"/>
      <point x="63" y="-120"/>
      <point x="79" y="-120" type="curve" smooth="yes"/>
      <point x="95" y="-120"/>
      <point x="109" y="-134"/>
      <point x="109" y="-150" type="curve" smooth="yes"/>
      <point x="109" y="-225" type="line" smooth="yes"/>
      <point x="109" y="-241"/>
      <point x="95" y="-255"/>
      <point x="79" y="-255" type="curve" smooth="yes"/>
      <point x="63" y="-255"/>
      <point x="49" y="-241"/>
    </contour>
    <contour>
      <point x="-295" y="-117" type="curve" smooth="yes"/>
      <point x="-271" y="-103"/>
      <point x="-250" y="-99"/>
      <point x="-221" y="-99" type="curve" smooth="yes"/>
      <point x="-168" y="-99"/>
      <point x="-128" y="-136"/>
      <point x="-128" y="-183" type="curve" smooth="yes"/>
      <point x="-128" y="-218"/>
      <point x="-150" y="-245"/>
      <point x="-197" y="-275" type="curve" smooth="yes"/>
      <point x="-220" y="-291"/>
      <point x="-233" y="-311"/>
      <point x="-233" y="-330" type="curve" smooth="yes"/>
      <point x="-233" y="-350"/>
      <point x="-214" y="-363"/>
      <point x="-188" y="-363" type="curve" smooth="yes"/>
      <point x="-155" y="-363"/>
      <point x="-128" y="-340"/>
      <point x="-96" y="-311" type="curve" smooth="yes"/>
      <point x="-92" y="-307"/>
      <point x="-82" y="-303"/>
      <point x="-76" y="-303" type="curve" smooth="yes"/>
      <point x="-72" y="-303" type="line" smooth="yes"/>
      <point x="-65" y="-303"/>
      <point x="-55" y="-307"/>
      <point x="-50" y="-313" type="curve" smooth="yes"/>
      <point x="-21" y="-344"/>
      <point x="6" y="-363"/>
      <point x="39" y="-363" type="curve" smooth="yes"/>
      <point x="68" y="-363"/>
      <point x="86" y="-345"/>
      <point x="86" y="-322" type="curve" smooth="yes"/>
      <point x="86" y="-308"/>
      <point x="77" y="-286"/>
      <point x="70" y="-274" type="curve" smooth="yes"/>
      <point x="61" y="-260"/>
      <point x="65" y="-241"/>
      <point x="79" y="-233" type="curve" smooth="yes"/>
      <point x="93" y="-224"/>
      <point x="112" y="-228"/>
      <point x="120" y="-242" type="curve" smooth="yes"/>
      <point x="133" y="-262"/>
      <point x="146" y="-298"/>
      <point x="146" y="-322" type="curve" smooth="yes"/>
      <point x="146" y="-375"/>
      <point x="110" y="-423"/>
      <point x="39" y="-423" type="curve" smooth="yes"/>
      <point x="-8" y="-423"/>
      <point x="-51" y="-400"/>
      <point x="-94" y="-353" type="curve"/>
      <point x="-72" y="-363" type="line"/>
      <point x="-76" y="-363" type="line"/>
      <point x="-56" y="-355" type="line"/>
      <point x="-102" y="-398"/>
      <point x="-143" y="-423"/>
      <point x="-188" y="-423" type="curve" smooth="yes"/>
      <point x="-260" y="-423"/>
      <point x="-293" y="-376"/>
      <point x="-293" y="-330" type="curve" smooth="yes"/>
      <point x="-293" y="-295"/>
      <point x="-274" y="-255"/>
      <point x="-229" y="-225" type="curve" smooth="yes"/>
      <point x="-208" y="-211"/>
      <point x="-188" y="-202"/>
      <point x="-188" y="-183" type="curve" smooth="yes"/>
      <point x="-188" y="-166"/>
      <point x="-206" y="-159"/>
      <point x="-221" y="-159" type="curve" smooth="yes"/>
      <point x="-238" y="-159"/>
      <point x="-251" y="-161"/>
      <point x="-267" y="-169" type="curve" smooth="yes"/>
      <point x="-281" y="-177"/>
      <point x="-299" y="-172"/>
      <point x="-307" y="-157" type="curve" smooth="yes"/>
      <point x="-315" y="-143"/>
      <point x="-310" y="-125"/>
    </contour>
  </outline>
</glyph>
<glyph name="knDDA.base" format="1">
  <advance width="745"/>
  <outline>
    <contour>
      <point x="98" y="470" type="curve" smooth="yes"/>
      <point x="518" y="470" type="line" smooth="yes"/>
      <point x="536" y="470"/>
      <point x="551" y="455"/>
      <point x="551" y="437" type="curve" smooth="yes"/>
      <point x="551" y="419"/>
      <point x="536" y="404"/>
      <point x="518" y="404" type="curve" smooth="yes"/>
      <point x="98" y="404" type="line" smooth="yes"/>
      <point x="80" y="404"/>
      <point x="65" y="419"/>
      <point x="65" y="437" type="curve" smooth="yes"/>
      <point x="65" y="455"/>
      <point x="80" y="470"/>
    </contour>
    <contour>
      <point x="302" y="407" type="curve" smooth="yes"/>
      <point x="192" y="358"/>
      <point x="129" y="259"/>
      <point x="129" y="168" type="curve" smooth="yes"/>
      <point x="129" y="101"/>
      <point x="171" y="60"/>
      <point x="223" y="60" type="curve" smooth="yes"/>
      <point x="276" y="60"/>
      <point x="306" y="90"/>
      <point x="335" y="143" type="curve" smooth="yes"/>
      <point x="340" y="153"/>
      <point x="353" y="161"/>
      <point x="364" y="161" type="curve" smooth="yes"/>
      <point x="369" y="161" type="line" smooth="yes"/>
      <point x="380" y="161"/>
      <point x="393" y="153"/>
      <point x="398" y="144" type="curve" smooth="yes"/>
      <point x="429" y="87"/>
      <point x="477" y="60"/>
      <point x="523" y="60" type="curve" smooth="yes"/>
      <point x="593" y="60"/>
      <point x="635" y="105"/>
      <point x="635" y="172" type="curve" smooth="yes"/>
      <point x="635" y="235"/>
      <point x="584" y="329"/>
      <point x="451" y="409" type="curve" smooth="yes"/>
      <point x="436" y="418"/>
      <point x="431" y="439"/>
      <point x="440" y="454" type="curve" smooth="yes"/>
      <point x="449" y="469"/>
      <point x="470" y="474"/>
      <point x="485" y="465" type="curve" smooth="yes"/>
      <point x="650" y="367"/>
      <point x="701" y="247"/>
      <point x="701" y="172" type="curve" smooth="yes"/>
      <point x="701" y="65"/>
      <point x="635" y="-6"/>
      <point x="523" y="-6" type="curve" smooth="yes"/>
      <point x="457" y="-6"/>
      <point x="385" y="29"/>
      <point x="340" y="112" type="curve"/>
      <point x="369" y="95" type="line"/>
      <point x="364" y="95" type="line"/>
      <point x="393" y="113" type="line"/>
      <point x="350" y="30"/>
      <point x="300" y="-6"/>
      <point x="223" y="-6" type="curve" smooth="yes"/>
      <point x="139" y="-6"/>
      <point x="63" y="55"/>
      <point x="63" y="168" type="curve"/>
      <point x="63" y="281"/>
      <point x="138" y="406"/>
      <point x="276" y="467" type="curve" smooth="yes"/>
      <point x="292" y="474"/>
      <point x="312" y="467"/>
      <point x="319" y="450" type="curve" smooth="yes"/>
      <point x="326" y="434"/>
      <point x="319" y="414"/>
    </contour>
    <contour>
      <point x="561" y="323" type="curve" smooth="yes"/>
      <point x="516" y="323"/>
      <point x="484" y="291"/>
      <point x="484" y="261" type="curve" smooth="yes"/>
      <point x="484" y="235"/>
      <point x="508" y="214"/>
      <point x="537" y="214" type="curve" smooth="yes"/>
      <point x="572" y="214"/>
      <point x="598" y="234"/>
      <point x="614" y="269" type="curve" smooth="yes"/>
      <point x="621" y="285"/>
      <point x="642" y="292"/>
      <point x="658" y="285" type="curve" smooth="yes"/>
      <point x="674" y="278"/>
      <point x="681" y="257"/>
      <point x="674" y="241" type="curve" smooth="yes"/>
      <point x="646" y="180"/>
      <point x="598" y="148"/>
      <point x="537" y="148" type="curve" smooth="yes"/>
      <point x="466" y="148"/>
      <point x="418" y="202"/>
      <point x="418" y="261" type="curve" smooth="yes"/>
      <point x="418" y="317"/>
      <point x="468" y="389"/>
      <point x="561" y="389" type="curve" smooth="yes"/>
      <point x="579" y="389"/>
      <point x="594" y="374"/>
      <point x="594" y="356" type="curve" smooth="yes"/>
      <point x="594" y="338"/>
      <point x="579" y="323"/>
    </contour>
  </outline>
</glyph>
<glyph name="knDDAc2.following" format="1">
  <advance width="400"/>
  <outline>
    <contour>
      <point x="304" y="-97" type="curve" smooth="yes"/>
      <point x="464" y="-97"/>
      <point x="542" y="-222"/>
      <point x="542" y="-298" type="curve" smooth="yes"/>
      <point x="542" y="-374"/>
      <point x="485" y="-422"/>
      <point x="414" y="-422" type="curve" smooth="yes"/>
      <point x="355" y="-422"/>
      <point x="321" y="-400"/>
      <point x="280" y="-358" type="curve"/>
      <point x="302" y="-367" type="line"/>
      <point x="301" y="-367" type="line"/>
      <point x="325" y="-356" type="line"/>
      <point x="289" y="-401"/>
      <point x="248" y="-422"/>
      <point x="199" y="-422" type="curve" smooth="yes"/>
      <point x="128" y="-422"/>
      <point x="77" y="-378"/>
      <point x="77" y="-298" type="curve" smooth="yes"/>
      <point x="77" y="-222"/>
      <point x="152" y="-97"/>
    </contour>
    <contour>
      <point x="304" y="-157" type="curve" smooth="yes"/>
      <point x="198" y="-157"/>
      <point x="137" y="-242"/>
      <point x="137" y="-298" type="curve" smooth="yes"/>
      <point x="137" y="-338"/>
      <point x="162" y="-362"/>
      <point x="199" y="-362" type="curve" smooth="yes"/>
      <point x="230" y="-362"/>
      <point x="255" y="-347"/>
      <point x="277" y="-318" type="curve" smooth="yes"/>
      <point x="282" y="-312"/>
      <point x="293" y="-307"/>
      <point x="301" y="-307" type="curve" smooth="yes"/>
      <point x="302" y="-307" type="line" smooth="yes"/>
      <point x="309" y="-307"/>
      <point x="319" y="-311"/>
      <point x="324" y="-316" type="curve" smooth="yes"/>
      <point x="351" y="-344"/>
      <point x="373" y="-362"/>
      <point x="414" y="-362" type="curve" smooth="yes"/>
      <point x="451" y="-362"/>
      <point x="482" y="-338"/>
      <point x="482" y="-298" type="curve" smooth="yes"/>
      <point x="482" y="-242"/>
      <point x="416" y="-157"/>
    </contour>
    <contour>
      <point x="411" y="-189" type="curve" smooth="yes"/>
      <point x="393" y="-201"/>
      <point x="381" y="-217"/>
      <point x="381" y="-237" type="curve" smooth="yes"/>
      <point x="381" y="-255"/>
      <point x="396" y="-266"/>
      <point x="413" y="-266" type="curve" smooth="yes"/>
      <point x="429" y="-266"/>
      <point x="444" y="-259"/>
      <point x="454" y="-249" type="curve" smooth="yes"/>
      <point x="466" y="-238"/>
      <point x="486" y="-239"/>
      <point x="497" y="-250" type="curve" smooth="yes"/>
      <point x="508" y="-262"/>
      <point x="507" y="-282"/>
      <point x="496" y="-293" type="curve" smooth="yes"/>
      <point x="474" y="-313"/>
      <point x="445" y="-326"/>
      <point x="413" y="-326" type="curve" smooth="yes"/>
      <point x="362" y="-326"/>
      <point x="321" y="-287"/>
      <point x="321" y="-237" type="curve" smooth="yes"/>
      <point x="321" y="-197"/>
      <point x="341" y="-163"/>
      <point x="379" y="-139" type="curve" smooth="yes"/>
      <point x="392" y="-130"/>
      <point x="411" y="-134"/>
      <point x="420" y="-148" type="curve" smooth="yes"/>
      <point x="429" y="-161"/>
      <point x="425" y="-180"/>
    </contour>
  </outline>
</glyph>
<glyph name="knDDHAc2" format="1">
  <advance width="0"/>
  <outline>
    <contour>
      <point x="-76" y="-97" type="curve" smooth="yes"/>
      <point x="84" y="-97"/>
      <point x="162" y="-222"/>
      <point x="162" y="-298" type="curve" smooth="yes"/>
      <point x="162" y="-374"/>
      <point x="105" y="-422"/>
      <point x="34" y="-422" type="curve" smooth="yes"/>
      <point x="-25" y="-422"/>
      <point x="-59" y="-400"/>
      <point x="-100" y="-358" type="curve"/>
      <point x="-78" y="-367" type="line"/>
      <point x="-79" y="-367" type="line"/>
      <point x="-55" y="-356" type="line"/>
      <point x="-91" y="-401"/>
      <point x="-132" y="-422"/>
      <point x="-181" y="-422" type="curve" smooth="yes"/>
      <point x="-252" y="-422"/>
      <point x="-303" y="-378"/>
      <point x="-303" y="-298" type="curve" smooth="yes"/>
      <point x="-303" y="-222"/>
      <point x="-228" y="-97"/>
    </contour>
    <contour>
      <point x="-47" y="-480" type="curve" smooth="yes"/>
      <point x="-47" y="-546" type="line" smooth="yes"/>
      <point x="-47" y="-562"/>
      <point x="-61" y="-576"/>
      <point x="-77" y="-576" type="curve" smooth="yes"/>
      <point x="-93" y="-576"/>
      <point x="-107" y="-562"/>
      <point x="-107" y="-546" type="curve" smooth="yes"/>
      <point x="-107" y="-480" type="line" smooth="yes"/>
      <point x="-107" y="-464"/>
      <point x="-93" y="-450"/>
      <point x="-77" y="-450" type="curve" smooth="yes"/>
      <point x="-61" y="-450"/>
      <point x="-47" y="-464"/>
    </contour>
    <contour>
      <point x="-76" y="-157" type="curve" smooth="yes"/>
      <point x="-182" y="-157"/>
      <point x="-243" y="-242"/>
      <point x="-243" y="-298" type="curve" smooth="yes"/>
      <point x="-243" y="-338"/>
      <point x="-218" y="-362"/>
      <point x="-181" y="-362" type="curve" smooth="yes"/>
      <point x="-150" y="-362"/>
      <point x="-125" y="-347"/>
      <point x="-103" y="-318" type="curve" smooth="yes"/>
      <point x="-98" y="-312"/>
      <point x="-87" y="-307"/>
      <point x="-79" y="-307" type="curve" smooth="yes"/>
      <point x="-78" y="-307" type="line" smooth="yes"/>
      <point x="-71" y="-307"/>
      <point x="-61" y="-311"/>
      <point x="-56" y="-316" type="curve" smooth="yes"/>
      <point x="-29" y="-344"/>
      <point x="-7" y="-362"/>
      <point x="34" y="-362" type="curve" smooth="yes"/>
      <point x="71" y="-362"/>
      <point x="102" y="-338"/>
      <point x="102" y="-298" type="curve" smooth="yes"/>
      <point x="102" y="-242"/>
      <point x="36" y="-157"/>
    </contour>
    <contour>
      <point x="31" y="-189" type="curve" smooth="yes"/>
      <point x="13" y="-201"/>
      <point x="1" y="-217"/>
      <point x="1" y="-237" type="curve" smooth="yes"/>
      <point x="1" y="-255"/>
      <point x="16" y="-266"/>
      <point x="33" y="-266" type="curve" smooth="yes"/>
      <point x="49" y="-266"/>
      <point x="64" y="-259"/>
      <point x="74" y="-249" type="curve" smooth="yes"/>
      <point x="86" y="-238"/>
      <point x="106" y="-239"/>
      <point x="117" y="-250" type="curve" smooth="yes"/>
      <point x="128" y="-262"/>
      <point x="127" y="-282"/>
      <point x="116" y="-293" type="curve" smooth="yes"/>
      <point x="94" y="-313"/>
      <point x="65" y="-326"/>
      <point x="33" y="-326" type="curve" smooth="yes"/>
      <point x="-18" y="-326"/>
      <point x="-59" y="-287"/>
      <point x="-59" y="-237" type="curve"/>
      <point x="-59" y="-197"/>
      <point x="-39" y="-163"/>
      <point x="-1" y="-139" type="curve" smooth="yes"/>
      <point x="12" y="-130"/>
      <point x="31" y="-134"/>
      <point x="40" y="-148" type="curve" smooth="yes"/>
      <point x="49" y="-161"/>
      <point x="45" y="-180"/>
    </contour>
  </outline>
</glyph>
<glyph name="knGHA.base" format="1">
  <advance width="822"/>
  <outline>
    <contour>
      <point x="752" y="356" type="curve" smooth="yes"/>
      <point x="765" y="334"/>
      <point x="772" y="317"/>
      <point x="772" y="282" type="curve" smooth="yes"/>
      <point x="772" y="230"/>
      <point x="726" y="177"/>
      <point x="665" y="177" type="curve" smooth="yes"/>
      <point x="633" y="177"/>
      <point x="604" y="189"/>
      <point x="578" y="209" type="curve" smooth="yes"/>
      <point x="564" y="219"/>
      <point x="561" y="241"/>
      <point x="572" y="255" type="curve" smooth="yes"/>
      <point x="582" y="269"/>
      <point x="604" y="272"/>
      <point x="618" y="261" type="curve" smooth="yes"/>
      <point x="632" y="251"/>
      <point x="647" y="243"/>
      <point x="665" y="243" type="curve" smooth="yes"/>
      <point x="688" y="243"/>
      <point x="706" y="262"/>
      <point x="706" y="282" type="curve" smooth="yes"/>
      <point x="706" y="301"/>
      <point x="703" y="310"/>
      <point x="696" y="322" type="curve" smooth="yes"/>
      <point x="687" y="338"/>
      <point x="692" y="358"/>
      <point x="707" y="367" type="curve" smooth="yes"/>
      <point x="723" y="376"/>
      <point x="743" y="371"/>
    </contour>
    <contour>
      <point x="407" y="-89" type="curve" smooth="yes"/>
      <point x="407" y="-192" type="line" smooth="yes"/>
      <point x="407" y="-210"/>
      <point x="392" y="-225"/>
      <point x="374" y="-225" type="curve" smooth="yes"/>
      <point x="356" y="-225"/>
      <point x="341" y="-210"/>
      <point x="341" y="-192" type="curve" smooth="yes"/>
      <point x="341" y="-89" type="line" smooth="yes"/>
      <point x="341" y="-71"/>
      <point x="356" y="-56"/>
      <point x="374" y="-56" type="curve" smooth="yes"/>
      <point x="392" y="-56"/>
      <point x="407" y="-71"/>
    </contour>
    <contour>
      <point x="96" y="470" type="curve" smooth="yes"/>
      <point x="531" y="470" type="line" smooth="yes"/>
      <point x="549" y="470"/>
      <point x="564" y="455"/>
      <point x="564" y="437" type="curve" smooth="yes"/>
      <point x="564" y="419"/>
      <point x="549" y="404"/>
      <point x="531" y="404" type="curve" smooth="yes"/>
      <point x="96" y="404" type="line" smooth="yes"/>
      <point x="78" y="404"/>
      <point x="63" y="419"/>
      <point x="63" y="437" type="curve" smooth="yes"/>
      <point x="63" y="455"/>
      <point x="78" y="470"/>
    </contour>
    <contour>
      <point x="194" y="187" type="curve" smooth="yes"/>
      <point x="152" y="181"/>
      <point x="126" y="156"/>
      <point x="126" y="122" type="curve" smooth="yes"/>
      <point x="126" y="84"/>
      <point x="162" y="58"/>
      <point x="212" y="58" type="curve" smooth="yes"/>
      <point x="269" y="58"/>
      <point x="305" y="89"/>
      <point x="344" y="147" type="curve" smooth="yes"/>
      <point x="349" y="155"/>
      <point x="361" y="161"/>
      <point x="371" y="161" type="curve" smooth="yes"/>
      <point x="376" y="161" type="line" smooth="yes"/>
      <point x="386" y="161"/>
      <point x="398" y="154"/>
      <point x="404" y="146" type="curve" smooth="yes"/>
      <point x="438" y="92"/>
      <point x="476" y="60"/>
      <point x="537" y="60" type="curve" smooth="yes"/>
      <point x="586" y="60"/>
      <point x="619" y="91"/>
      <point x="619" y="129" type="curve" smooth="yes"/>
      <point x="619" y="165"/>
      <point x="597" y="194"/>
      <point x="571" y="213" type="curve" smooth="yes"/>
      <point x="557" y="224"/>
      <point x="554" y="245"/>
      <point x="564" y="260" type="curve" smooth="yes"/>
      <point x="575" y="274"/>
      <point x="596" y="277"/>
      <point x="611" y="267" type="curve" smooth="yes"/>
      <point x="653" y="236"/>
      <point x="685" y="187"/>
      <point x="685" y="129" type="curve" smooth="yes"/>
      <point x="685" y="61"/>
      <point x="632" y="-6"/>
      <point x="537" y="-6" type="curve" smooth="yes"/>
      <point x="452" y="-6"/>
      <point x="398" y="34"/>
      <point x="348" y="110" type="curve"/>
      <point x="376" y="95" type="line"/>
      <point x="371" y="95" type="line"/>
      <point x="398" y="109" type="line"/>
      <point x="343" y="29"/>
      <point x="291" y="-8"/>
      <point x="212" y="-8" type="curve" smooth="yes"/>
      <point x="110" y="-8"/>
      <point x="60" y="54"/>
      <point x="60" y="122" type="curve"/>
      <point x="60" y="184"/>
      <point x="102" y="241"/>
      <point x="184" y="253" type="curve" smooth="yes"/>
      <point x="202" y="255"/>
      <point x="219" y="242"/>
      <point x="222" y="225" type="curve" smooth="yes"/>
      <point x="224" y="207"/>
      <point x="211" y="190"/>
    </contour>
    <contour>
      <point x="339" y="410" type="curve" smooth="yes"/>
      <point x="321" y="393"/>
      <point x="314" y="373"/>
      <point x="314" y="356" type="curve" smooth="yes"/>
      <point x="314" y="328"/>
      <point x="338" y="306"/>
      <point x="373" y="306" type="curve" smooth="yes"/>
      <point x="409" y="306"/>
      <point x="432" y="328"/>
      <point x="432" y="357" type="curve" smooth="yes"/>
      <point x="432" y="374"/>
      <point x="425" y="394"/>
      <point x="407" y="412" type="curve" smooth="yes"/>
      <point x="394" y="424"/>
      <point x="393" y="445"/>
      <point x="405" y="458" type="curve" smooth="yes"/>
      <point x="417" y="471"/>
      <point x="438" y="472"/>
      <point x="451" y="460" type="curve" smooth="yes"/>
      <point x="487" y="428"/>
      <point x="498" y="390"/>
      <point x="498" y="357" type="curve" smooth="yes"/>
      <point x="498" y="296"/>
      <point x="457" y="240"/>
      <point x="373" y="240" type="curve" smooth="yes"/>
      <point x="292" y="240"/>
      <point x="248" y="298"/>
      <point x="248" y="356" type="curve" smooth="yes"/>
      <point x="248" y="389"/>
      <point x="261" y="427"/>
      <point x="295" y="458" type="curve" smooth="yes"/>
      <point x="308" y="470"/>
      <point x="329" y="469"/>
      <point x="341" y="456" type="curve" smooth="yes"/>
      <point x="353" y="443"/>
      <point x="352" y="422"/>
    </contour>
  </outline>
</glyph>
<glyph name="knJAc2.following" format="1">
  <advance width="400"/>
  <outline>
    <contour>
      <point x="466" y="-122" type="curve" smooth="yes"/>
      <point x="469" y="-134"/>
      <point x="470" y="-141"/>
      <point x="470" y="-154" type="curve" smooth="yes"/>
      <point x="470" y="-207"/>
      <point x="445" y="-251"/>
      <point x="365" y="-251" type="curve" smooth="yes"/>
      <point x="305" y="-251"/>
      <point x="240" y="-220"/>
      <point x="180" y="-165" type="curve" smooth="yes"/>
      <point x="168" y="-154"/>
      <point x="167" y="-135"/>
      <point x="178" y="-123" type="curve" smooth="yes"/>
      <point x="189" y="-111"/>
      <point x="208" y="-110"/>
      <point x="220" y="-121" type="curve" smooth="yes"/>
      <point x="268" y="-164"/>
      <point x="317" y="-191"/>
      <point x="365" y="-191" type="curve" smooth="yes"/>
      <point x="395" y="-191"/>
      <point x="410" y="-177"/>
      <point x="410" y="-154" type="curve" smooth="yes"/>
      <point x="410" y="-147"/>
      <point x="409" y="-142"/>
      <point x="408" y="-136" type="curve" smooth="yes"/>
      <point x="404" y="-120"/>
      <point x="415" y="-103"/>
      <point x="430" y="-100" type="curve" smooth="yes"/>
      <point x="446" y="-96"/>
      <point x="463" y="-107"/>
    </contour>
    <contour>
      <point x="85" y="-119" type="curve" smooth="yes"/>
      <point x="109" y="-105"/>
      <point x="130" y="-101"/>
      <point x="159" y="-101" type="curve" smooth="yes"/>
      <point x="212" y="-101"/>
      <point x="252" y="-138"/>
      <point x="252" y="-185" type="curve" smooth="yes"/>
      <point x="252" y="-220"/>
      <point x="230" y="-247"/>
      <point x="183" y="-277" type="curve" smooth="yes"/>
      <point x="161" y="-293"/>
      <point x="147" y="-311"/>
      <point x="147" y="-330" type="curve" smooth="yes"/>
      <point x="147" y="-350"/>
      <point x="166" y="-363"/>
      <point x="192" y="-363" type="curve" smooth="yes"/>
      <point x="225" y="-363"/>
      <point x="252" y="-340"/>
      <point x="284" y="-311" type="curve" smooth="yes"/>
      <point x="288" y="-307"/>
      <point x="298" y="-303"/>
      <point x="304" y="-303" type="curve" smooth="yes"/>
      <point x="308" y="-303" type="line" smooth="yes"/>
      <point x="315" y="-303"/>
      <point x="325" y="-307"/>
      <point x="330" y="-313" type="curve" smooth="yes"/>
      <point x="359" y="-344"/>
      <point x="386" y="-363"/>
      <point x="419" y="-363" type="curve" smooth="yes"/>
      <point x="448" y="-363"/>
      <point x="466" y="-345"/>
      <point x="466" y="-322" type="curve" smooth="yes"/>
      <point x="466" y="-312"/>
      <point x="464" y="-307"/>
      <point x="462" y="-299" type="curve" smooth="yes"/>
      <point x="458" y="-283"/>
      <point x="467" y="-266"/>
      <point x="483" y="-262" type="curve" smooth="yes"/>
      <point x="499" y="-258"/>
      <point x="516" y="-267"/>
      <point x="520" y="-283" type="curve" smooth="yes"/>
      <point x="524" y="-297"/>
      <point x="526" y="-306"/>
      <point x="526" y="-322" type="curve" smooth="yes"/>
      <point x="526" y="-375"/>
      <point x="490" y="-423"/>
      <point x="419" y="-423" type="curve" smooth="yes"/>
      <point x="372" y="-423"/>
      <point x="329" y="-400"/>
      <point x="286" y="-353" type="curve"/>
      <point x="308" y="-363" type="line"/>
      <point x="304" y="-363" type="line"/>
      <point x="324" y="-355" type="line"/>
      <point x="278" y="-398"/>
      <point x="237" y="-423"/>
      <point x="192" y="-423" type="curve" smooth="yes"/>
      <point x="120" y="-423"/>
      <point x="87" y="-376"/>
      <point x="87" y="-330" type="curve" smooth="yes"/>
      <point x="87" y="-295"/>
      <point x="105" y="-257"/>
      <point x="151" y="-227" type="curve" smooth="yes"/>
      <point x="172" y="-213"/>
      <point x="192" y="-204"/>
      <point x="192" y="-185" type="curve" smooth="yes"/>
      <point x="192" y="-168"/>
      <point x="174" y="-161"/>
      <point x="159" y="-161" type="curve" smooth="yes"/>
      <point x="142" y="-161"/>
      <point x="129" y="-163"/>
      <point x="113" y="-171" type="curve" smooth="yes"/>
      <point x="99" y="-179"/>
      <point x="81" y="-174"/>
      <point x="73" y="-159" type="curve" smooth="yes"/>
      <point x="65" y="-145"/>
      <point x="70" y="-127"/>
    </contour>
  </outline>
</glyph>
<glyph name="knKAc2" format="1">
  <advance width="149"/>
  <outline>
    <contour>
      <point x="19" y="-133" type="curve" smooth="yes"/>
      <point x="42" y="-100"/>
      <point x="51" y="-52"/>
      <point x="51" y="-19" type="curve" smooth="yes"/>
      <point x="51" y="2"/>
      <point x="49" y="30"/>
      <point x="47" y="41" type="curve" smooth="yes"/>
      <point x="43" y="57"/>
      <point x="53" y="74"/>
      <point x="69" y="77" type="curve" smooth="yes"/>
      <point x="85" y="81"/>
      <point x="102" y="71"/>
      <point x="105" y="55" type="curve" smooth="yes"/>
      <point x="109" y="40"/>
      <point x="111" y="6"/>
      <point x="111" y="-19" type="curve" smooth="yes"/>
      <point x="111" y="-62"/>
      <point x="98" y="-124"/>
      <point x="69" y="-167" type="curve" smooth="yes"/>
      <point x="60" y="-180"/>
      <point x="40" y="-184"/>
      <point x="27" y="-175" type="curve" smooth="yes"/>
      <point x="14" y="-166"/>
      <point x="10" y="-146"/>
    </contour>
    <contour>
      <point x="-117" y="-119" type="curve" smooth="yes"/>
      <point x="233" y="-119" type="line" smooth="yes"/>
      <point x="249" y="-119"/>
      <point x="263" y="-133"/>
      <point x="263" y="-149" type="curve" smooth="yes"/>
      <point x="263" y="-165"/>
      <point x="249" y="-179"/>
      <point x="233" y="-179" type="curve" smooth="yes"/>
      <point x="-117" y="-179" type="line" smooth="yes"/>
      <point x="-133" y="-179"/>
      <point x="-147" y="-165"/>
      <point x="-147" y="-149" type="curve" smooth="yes"/>
      <point x="-147" y="-133"/>
      <point x="-133" y="-119"/>
    </contour>
    <contour>
      <point x="34" y="-181" type="curve" smooth="yes"/>
      <point x="-2" y="-187"/>
      <point x="-26" y="-213"/>
      <point x="-26" y="-246" type="curve" smooth="yes"/>
      <point x="-26" y="-281"/>
      <point x="0" y="-313"/>
      <point x="58" y="-313" type="curve" smooth="yes"/>
      <point x="117" y="-313"/>
      <point x="142" y="-280"/>
      <point x="142" y="-246" type="curve" smooth="yes"/>
      <point x="142" y="-213"/>
      <point x="118" y="-187"/>
      <point x="83" y="-181" type="curve" smooth="yes"/>
      <point x="67" y="-178"/>
      <point x="56" y="-162"/>
      <point x="58" y="-146" type="curve" smooth="yes"/>
      <point x="61" y="-130"/>
      <point x="77" y="-119"/>
      <point x="93" y="-121" type="curve" smooth="yes"/>
      <point x="160" y="-133"/>
      <point x="202" y="-185"/>
      <point x="202" y="-246" type="curve" smooth="yes"/>
      <point x="202" y="-304"/>
      <point x="169" y="-373"/>
      <point x="58" y="-373" type="curve" smooth="yes"/>
      <point x="-52" y="-373"/>
      <point x="-86" y="-305"/>
      <point x="-86" y="-246" type="curve" smooth="yes"/>
      <point x="-86" y="-185"/>
      <point x="-44" y="-133"/>
      <point x="24" y="-121" type="curve" smooth="yes"/>
      <point x="40" y="-119"/>
      <point x="56" y="-130"/>
      <point x="59" y="-146" type="curve" smooth="yes"/>
      <point x="61" y="-162"/>
      <point x="50" y="-178"/>
    </contour>
  </outline>
</glyph>
<glyph name="knKHAc2.following" format="1">
  <advance width="399"/>
  <outline>
    <contour>
      <point x="24" y="-100" type="curve" smooth="yes"/>
      <point x="41" y="-94"/>
      <point x="65" y="-87"/>
      <point x="96" y="-87" type="curve" smooth="yes"/>
      <point x="173" y="-87"/>
      <point x="237" y="-138"/>
      <point x="237" y="-222" type="curve" smooth="yes"/>
      <point x="237" y="-299"/>
      <point x="168" y="-382"/>
      <point x="57" y="-382" type="curve" smooth="yes"/>
      <point x="-8" y="-382"/>
      <point x="-44" y="-341"/>
      <point x="-44" y="-294" type="curve" smooth="yes"/>
      <point x="-44" y="-246"/>
      <point x="-12" y="-206"/>
      <point x="46" y="-206" type="curve" smooth="yes"/>
      <point x="86" y="-206"/>
      <point x="136" y="-229"/>
      <point x="183" y="-274" type="curve" smooth="yes"/>
      <point x="216" y="-306"/>
      <point x="248" y="-318"/>
      <point x="282" y="-318" type="curve" smooth="yes"/>
      <point x="326" y="-318"/>
      <point x="346" y="-277"/>
      <point x="346" y="-221" type="curve" smooth="yes"/>
      <point x="346" y="-134"/>
      <point x="318" y="-22"/>
      <point x="298" y="39" type="curve" smooth="yes"/>
      <point x="292" y="54"/>
      <point x="301" y="71"/>
      <point x="317" y="76" type="curve" smooth="yes"/>
      <point x="332" y="82"/>
      <point x="349" y="73"/>
      <point x="354" y="57" type="curve" smooth="yes"/>
      <point x="376" y="-8"/>
      <point x="406" y="-128"/>
      <point x="406" y="-221" type="curve" smooth="yes"/>
      <point x="406" y="-329"/>
      <point x="354" y="-378"/>
      <point x="282" y="-378" type="curve" smooth="yes"/>
      <point x="234" y="-378"/>
      <point x="188" y="-362"/>
      <point x="141" y="-318" type="curve" smooth="yes"/>
      <point x="108" y="-287"/>
      <point x="74" y="-266"/>
      <point x="46" y="-266" type="curve" smooth="yes"/>
      <point x="28" y="-266"/>
      <point x="16" y="-278"/>
      <point x="16" y="-294" type="curve" smooth="yes"/>
      <point x="16" y="-313"/>
      <point x="36" y="-322"/>
      <point x="57" y="-322" type="curve" smooth="yes"/>
      <point x="126" y="-322"/>
      <point x="177" y="-273"/>
      <point x="177" y="-222" type="curve" smooth="yes"/>
      <point x="177" y="-174"/>
      <point x="139" y="-147"/>
      <point x="96" y="-147" type="curve" smooth="yes"/>
      <point x="73" y="-147"/>
      <point x="55" y="-152"/>
      <point x="42" y="-156" type="curve" smooth="yes"/>
      <point x="27" y="-162"/>
      <point x="10" y="-153"/>
      <point x="5" y="-137" type="curve" smooth="yes"/>
      <point x="-1" y="-122"/>
      <point x="8" y="-105"/>
    </contour>
  </outline>
</glyph>
<glyph name="knLAc2" format="1">
  <advance width="0"/>
  <outline>
    <contour>
      <point x="75" y="-287" type="curve" smooth="yes"/>
      <point x="80" y="-274"/>
      <point x="85" y="-259"/>
      <point x="85" y="-239" type="curve" smooth="yes"/>
      <point x="85" y="-199"/>
      <point x="57" y="-170"/>
      <point x="16" y="-170" type="curve" smooth="yes"/>
      <point x="-29" y="-170"/>
      <point x="-55" y="-204"/>
      <point x="-80" y="-254" type="curve" smooth="yes"/>
      <point x="-85" y="-264"/>
      <point x="-97" y="-271"/>
      <point x="-107" y="-271" type="curve" smooth="yes"/>
      <point x="-112" y="-271" type="line" smooth="yes"/>
      <point x="-122" y="-271"/>
      <point x="-134" y="-263"/>
      <point x="-139" y="-254" type="curve" smooth="yes"/>
      <point x="-163" y="-204"/>
      <point x="-194" y="-169"/>
      <point x="-241" y="-169" type="curve" smooth="yes"/>
      <point x="-283" y="-169"/>
      <point x="-307" y="-197"/>
      <point x="-307" y="-230" type="curve" smooth="yes"/>
      <point x="-307" y="-249"/>
      <point x="-299" y="-265"/>
      <point x="-290" y="-281" type="curve" smooth="yes"/>
      <point x="-282" y="-295"/>
      <point x="-287" y="-314"/>
      <point x="-301" y="-322" type="curve" smooth="yes"/>
      <point x="-315" y="-330"/>
      <point x="-334" y="-325"/>
      <point x="-342" y="-311" type="curve" smooth="yes"/>
      <point x="-357" y="-285"/>
      <point x="-367" y="-259"/>
      <point x="-367" y="-230" type="curve" smooth="yes"/>
      <point x="-367" y="-167"/>
      <point x="-323" y="-109"/>
      <point x="-241" y="-109" type="curve" smooth="yes"/>
      <point x="-172" y="-109"/>
      <point x="-123" y="-152"/>
      <point x="-85" y="-228" type="curve"/>
      <point x="-112" y="-211" type="line"/>
      <point x="-107" y="-211" type="line"/>
      <point x="-134" y="-228" type="line"/>
      <point x="-95" y="-150"/>
      <point x="-49" y="-110"/>
      <point x="16" y="-110" type="curve" smooth="yes"/>
      <point x="93" y="-110"/>
      <point x="145" y="-163"/>
      <point x="145" y="-239" type="curve" smooth="yes"/>
      <point x="145" y="-267"/>
      <point x="138" y="-286"/>
      <point x="133" y="-305" type="curve" smooth="yes"/>
      <point x="128" y="-320"/>
      <point x="111" y="-329"/>
      <point x="95" y="-325" type="curve" smooth="yes"/>
      <point x="80" y="-320"/>
      <point x="71" y="-303"/>
    </contour>
  </outline>
</glyph>
<glyph name="knLLA.base" format="1">
  <advance width="705"/>
  <outline>
    <contour>
      <point x="342" y="199" type="curve" smooth="yes"/>
      <point x="342" y="199" type="line" smooth="yes"/>
      <point x="460" y="200"/>
      <point x="485" y="140"/>
      <point x="485" y="88" type="curve" smooth="yes"/>
      <point x="485" y="39"/>
      <point x="451" y="-22"/>
      <point x="342" y="-22" type="curve" smooth="yes"/>
      <point x="238" y="-22"/>
      <point x="200" y="38"/>
      <point x="200" y="89" type="curve" smooth="yes"/>
      <point x="200" y="140"/>
      <point x="230" y="198"/>
    </contour>
    <contour>
      <point x="95" y="352" type="curve" smooth="yes"/>
      <point x="120" y="339"/>
      <point x="150" y="331"/>
      <point x="182" y="331" type="curve" smooth="yes"/>
      <point x="216" y="331"/>
      <point x="243" y="346"/>
      <point x="243" y="375" type="curve" smooth="yes"/>
      <point x="243" y="401"/>
      <point x="219" y="419"/>
      <point x="188" y="419" type="curve" smooth="yes"/>
      <point x="143" y="419"/>
      <point x="112" y="378"/>
      <point x="112" y="333" type="curve" smooth="yes"/>
      <point x="112" y="305"/>
      <point x="117" y="274"/>
      <point x="134" y="256" type="curve" smooth="yes"/>
      <point x="170" y="220"/>
      <point x="222" y="201"/>
      <point x="350" y="201" type="curve" smooth="yes"/>
      <point x="448" y="201"/>
      <point x="513" y="219"/>
      <point x="544" y="250" type="curve" smooth="yes"/>
      <point x="561" y="265"/>
      <point x="570" y="287"/>
      <point x="570" y="308" type="curve" smooth="yes"/>
      <point x="570" y="341"/>
      <point x="546" y="387"/>
      <point x="498" y="407" type="curve" smooth="yes"/>
      <point x="482" y="413"/>
      <point x="474" y="433"/>
      <point x="481" y="450" type="curve" smooth="yes"/>
      <point x="487" y="466"/>
      <point x="507" y="474"/>
      <point x="524" y="467" type="curve" smooth="yes"/>
      <point x="600" y="435"/>
      <point x="636" y="361"/>
      <point x="636" y="308" type="curve" smooth="yes"/>
      <point x="636" y="269"/>
      <point x="619" y="231"/>
      <point x="590" y="202" type="curve" smooth="yes"/>
      <point x="551" y="165"/>
      <point x="474" y="135"/>
      <point x="350" y="135" type="curve" smooth="yes"/>
      <point x="190" y="135"/>
      <point x="132" y="166"/>
      <point x="88" y="210" type="curve" smooth="yes"/>
      <point x="59" y="238"/>
      <point x="46" y="287"/>
      <point x="46" y="333" type="curve"/>
      <point x="46" y="416"/>
      <point x="109" y="485"/>
      <point x="188" y="485" type="curve" smooth="yes"/>
      <point x="267" y="485"/>
      <point x="309" y="433"/>
      <point x="309" y="375" type="curve" smooth="yes"/>
      <point x="309" y="316"/>
      <point x="268" y="265"/>
      <point x="182" y="265" type="curve" smooth="yes"/>
      <point x="139" y="265"/>
      <point x="100" y="275"/>
      <point x="65" y="292" type="curve" smooth="yes"/>
      <point x="49" y="300"/>
      <point x="43" y="321"/>
      <point x="50" y="337" type="curve" smooth="yes"/>
      <point x="58" y="353"/>
      <point x="79" y="359"/>
    </contour>
    <contour>
      <point x="418" y="470" type="curve" smooth="yes"/>
      <point x="520" y="470" type="line" smooth="yes"/>
      <point x="538" y="470"/>
      <point x="553" y="455"/>
      <point x="553" y="437" type="curve" smooth="yes"/>
      <point x="553" y="419"/>
      <point x="538" y="404"/>
      <point x="520" y="404" type="curve" smooth="yes"/>
      <point x="418" y="404" type="line" smooth="yes"/>
      <point x="400" y="404"/>
      <point x="385" y="419"/>
      <point x="385" y="437" type="curve" smooth="yes"/>
      <point x="385" y="455"/>
      <point x="400" y="470"/>
    </contour>
    <contour>
      <point x="342" y="133" type="line"/>
      <point x="298" y="132"/>
      <point x="266" y="116"/>
      <point x="266" y="89" type="curve" smooth="yes"/>
      <point x="266" y="62"/>
      <point x="300" y="44"/>
      <point x="342" y="44" type="curve" smooth="yes"/>
      <point x="385" y="44"/>
      <point x="419" y="61"/>
      <point x="419" y="88" type="curve" smooth="yes"/>
      <point x="419" y="116"/>
      <point x="390" y="134"/>
      <point x="342" y="133" type="curve"/>
    </contour>
  </outline>
</glyph>
<glyph name="knLLAc2.following" format="1">
  <advance width="399"/>
  <outline>
    <contour>
      <point x="49" y="-185" type="curve" smooth="yes"/>
      <point x="64" y="-194"/>
      <point x="84" y="-200"/>
      <point x="108" y="-200" type="curve" smooth="yes"/>
      <point x="128" y="-200"/>
      <point x="151" y="-192"/>
      <point x="151" y="-170" type="curve" smooth="yes"/>
      <point x="151" y="-153"/>
      <point x="131" y="-142"/>
      <point x="109" y="-142" type="curve" smooth="yes"/>
      <point x="73" y="-142"/>
      <point x="50" y="-171"/>
      <point x="50" y="-201" type="curve"/>
      <point x="50" y="-230"/>
      <point x="61" y="-248"/>
      <point x="77" y="-265" type="curve" smooth="yes"/>
      <point x="98" y="-285"/>
      <point x="138" y="-302"/>
      <point x="203" y="-302" type="curve" smooth="yes"/>
      <point x="261" y="-302"/>
      <point x="293" y="-284"/>
      <point x="312" y="-266" type="curve" smooth="yes"/>
      <point x="333" y="-245"/>
      <point x="344" y="-218"/>
      <point x="344" y="-178" type="curve" smooth="yes"/>
      <point x="344" y="-130"/>
      <point x="326" y="-52"/>
      <point x="296" y="39" type="curve" smooth="yes"/>
      <point x="291" y="54"/>
      <point x="300" y="71"/>
      <point x="316" y="77" type="curve" smooth="yes"/>
      <point x="331" y="82"/>
      <point x="348" y="73"/>
      <point x="354" y="57" type="curve" smooth="yes"/>
      <point x="386" y="-42"/>
      <point x="404" y="-126"/>
      <point x="404" y="-178" type="curve" smooth="yes"/>
      <point x="404" y="-238"/>
      <point x="385" y="-277"/>
      <point x="354" y="-308" type="curve" smooth="yes"/>
      <point x="329" y="-334"/>
      <point x="285" y="-362"/>
      <point x="203" y="-362" type="curve" smooth="yes"/>
      <point x="114" y="-362"/>
      <point x="64" y="-335"/>
      <point x="35" y="-307" type="curve" smooth="yes"/>
      <point x="7" y="-280"/>
      <point x="-10" y="-248"/>
      <point x="-10" y="-201" type="curve" smooth="yes"/>
      <point x="-10" y="-139"/>
      <point x="35" y="-82"/>
      <point x="109" y="-82" type="curve" smooth="yes"/>
      <point x="177" y="-82"/>
      <point x="211" y="-129"/>
      <point x="211" y="-170" type="curve" smooth="yes"/>
      <point x="211" y="-224"/>
      <point x="167" y="-260"/>
      <point x="108" y="-260" type="curve" smooth="yes"/>
      <point x="72" y="-260"/>
      <point x="44" y="-250"/>
      <point x="21" y="-239" type="curve" smooth="yes"/>
      <point x="7" y="-231"/>
      <point x="1" y="-212"/>
      <point x="8" y="-198" type="curve" smooth="yes"/>
      <point x="16" y="-184"/>
      <point x="35" y="-178"/>
    </contour>
    <contour>
      <point x="168" y="-352" type="curve" smooth="yes"/>
      <point x="161" y="-358"/>
      <point x="154" y="-368"/>
      <point x="154" y="-380" type="curve" smooth="yes"/>
      <point x="154" y="-399"/>
      <point x="177" y="-407"/>
      <point x="202" y="-407" type="curve" smooth="yes"/>
      <point x="228" y="-407"/>
      <point x="254" y="-399"/>
      <point x="254" y="-378" type="curve" smooth="yes"/>
      <point x="254" y="-364"/>
      <point x="246" y="-355"/>
      <point x="239" y="-347" type="curve" smooth="yes"/>
      <point x="228" y="-335"/>
      <point x="229" y="-316"/>
      <point x="241" y="-305" type="curve" smooth="yes"/>
      <point x="253" y="-294"/>
      <point x="272" y="-295"/>
      <point x="283" y="-307" type="curve" smooth="yes"/>
      <point x="300" y="-325"/>
      <point x="314" y="-346"/>
      <point x="314" y="-378" type="curve" smooth="yes"/>
      <point x="314" y="-423"/>
      <point x="282" y="-467"/>
      <point x="202" y="-467" type="curve" smooth="yes"/>
      <point x="123" y="-467"/>
      <point x="94" y="-423"/>
      <point x="94" y="-380" type="curve" smooth="yes"/>
      <point x="94" y="-350"/>
      <point x="111" y="-322"/>
      <point x="130" y="-306" type="curve" smooth="yes"/>
      <point x="142" y="-296"/>
      <point x="161" y="-297"/>
      <point x="172" y="-310" type="curve" smooth="yes"/>
      <point x="182" y="-322"/>
      <point x="181" y="-341"/>
    </contour>
  </outline>
</glyph>
<glyph name="knLLI" format="1">
  <advance width="703"/>
  <outline>
    <contour>
      <point x="342" y="199" type="curve" smooth="yes"/>
      <point x="342" y="199" type="line" smooth="yes"/>
      <point x="460" y="200"/>
      <point x="485" y="140"/>
      <point x="485" y="88" type="curve" smooth="yes"/>
      <point x="485" y="39"/>
      <point x="451" y="-22"/>
      <point x="342" y="-22" type="curve" smooth="yes"/>
      <point x="238" y="-22"/>
      <point x="200" y="38"/>
      <point x="200" y="89" type="curve" smooth="yes"/>
      <point x="200" y="140"/>
      <point x="230" y="198"/>
    </contour>
    <contour>
      <point x="95" y="352" type="curve" smooth="yes"/>
      <point x="120" y="339"/>
      <point x="150" y="331"/>
      <point x="182" y="331" type="curve" smooth="yes"/>
      <point x="216" y="331"/>
      <point x="243" y="346"/>
      <point x="243" y="375" type="curve" smooth="yes"/>
      <point x="243" y="401"/>
      <point x="219" y="419"/>
      <point x="188" y="419" type="curve" smooth="yes"/>
      <point x="143" y="419"/>
      <point x="112" y="378"/>
      <point x="112" y="333" type="curve" smooth="yes"/>
      <point x="112" y="305"/>
      <point x="117" y="274"/>
      <point x="134" y="256" type="curve" smooth="yes"/>
      <point x="170" y="220"/>
      <point x="222" y="201"/>
      <point x="350" y="201" type="curve" smooth="yes"/>
      <point x="448" y="201"/>
      <point x="504" y="225"/>
      <point x="535" y="256" type="curve" smooth="yes"/>
      <point x="560" y="282"/>
      <point x="575" y="315"/>
      <point x="575" y="371" type="curve" smooth="yes"/>
      <point x="575" y="444"/>
      <point x="531" y="527"/>
      <point x="481" y="578" type="curve" smooth="yes"/>
      <point x="432" y="627"/>
      <point x="402" y="644"/>
      <point x="366" y="644" type="curve" smooth="yes"/>
      <point x="330" y="644"/>
      <point x="310" y="619"/>
      <point x="310" y="595" type="curve" smooth="yes"/>
      <point x="310" y="570"/>
      <point x="336" y="549"/>
      <point x="364" y="549" type="curve" smooth="yes"/>
      <point x="401" y="549"/>
      <point x="434" y="572"/>
      <point x="453" y="602" type="curve" smooth="yes"/>
      <point x="462" y="618"/>
      <point x="483" y="622"/>
      <point x="498" y="613" type="curve" smooth="yes"/>
      <point x="514" y="604"/>
      <point x="518" y="583"/>
      <point x="509" y="568" type="curve" smooth="yes"/>
      <point x="478" y="518"/>
      <point x="423" y="483"/>
      <point x="364" y="483" type="curve" smooth="yes"/>
      <point x="296" y="483"/>
      <point x="244" y="538"/>
      <point x="244" y="595" type="curve" smooth="yes"/>
      <point x="244" y="647"/>
      <point x="282" y="710"/>
      <point x="366" y="710" type="curve" smooth="yes"/>
      <point x="416" y="710"/>
      <point x="458" y="693"/>
      <point x="527" y="624" type="curve" smooth="yes"/>
      <point x="589" y="563"/>
      <point x="641" y="460"/>
      <point x="641" y="371" type="curve" smooth="yes"/>
      <point x="641" y="291"/>
      <point x="618" y="246"/>
      <point x="581" y="210" type="curve" smooth="yes"/>
      <point x="542" y="171"/>
      <point x="474" y="135"/>
      <point x="350" y="135" type="curve" smooth="yes"/>
      <point x="190" y="135"/>
      <point x="132" y="166"/>
      <point x="88" y="210" type="curve" smooth="yes"/>
      <point x="59" y="238"/>
      <point x="46" y="287"/>
      <point x="46" y="333" type="curve"/>
      <point x="46" y="416"/>
      <point x="109" y="485"/>
      <point x="188" y="485" type="curve" smooth="yes"/>
      <point x="267" y="485"/>
      <point x="309" y="433"/>
      <point x="309" y="375" type="curve" smooth="yes"/>
      <point x="309" y="316"/>
      <point x="268" y="265"/>
      <point x="182" y="265" type="curve" smooth="yes"/>
      <point x="139" y="265"/>
      <point x="100" y="275"/>
      <point x="65" y="292" type="curve" smooth="yes"/>
      <point x="49" y="300"/>
      <point x="43" y="321"/>
      <point x="50" y="337" type="curve" smooth="yes"/>
      <point x="58" y="353"/>
      <point x="79" y="359"/>
    </contour>
    <contour>
      <point x="342" y="133" type="line"/>
      <point x="298" y="132"/>
      <point x="266" y="116"/>
      <point x="266" y="89" type="curve" smooth="yes"/>
      <point x="266" y="62"/>
      <point x="300" y="44"/>
      <point x="342" y="44" type="curve" smooth="yes"/>
      <point x="385" y="44"/>
      <point x="419" y="61"/>
      <point x="419" y="88" type="curve" smooth="yes"/>
      <point x="419" y="116"/>
      <point x="390" y="134"/>
      <point x="342" y="133" type="curve"/>
    </contour>
  </outline>
</glyph>
<glyph name="knLLUU" format="1">
  <advance width="1271"/>
  <outline>
    <contour>
      <point x="575" y="217" type="curve" smooth="yes"/>
      <point x="620" y="134"/>
      <point x="671" y="60"/>
      <point x="747" y="60" type="curve" smooth="yes"/>
      <point x="793" y="60"/>
      <point x="815" y="88"/>
      <point x="815" y="129" type="curve" smooth="yes"/>
      <point x="815" y="182"/>
      <point x="790" y="232"/>
      <point x="790" y="292" type="curve" smooth="yes"/>
      <point x="790" y="375"/>
      <point x="850" y="470"/>
      <point x="965" y="470" type="curve" smooth="yes"/>
      <point x="1079" y="470"/>
      <point x="1224" y="366"/>
      <point x="1224" y="171" type="curve" smooth="yes"/>
      <point x="1224" y="50"/>
      <point x="1158" y="-10"/>
      <point x="1081" y="-10" type="curve" smooth="yes"/>
      <point x="1000" y="-10"/>
      <point x="956" y="48"/>
      <point x="955" y="110" type="curve" smooth="yes"/>
      <point x="954" y="180"/>
      <point x="1004" y="250"/>
      <point x="1102" y="250" type="curve" smooth="yes"/>
      <point x="1134" y="250"/>
      <point x="1168" y="245"/>
      <point x="1196" y="236" type="curve" smooth="yes"/>
      <point x="1213" y="231"/>
      <point x="1223" y="212"/>
      <point x="1217" y="195" type="curve" smooth="yes"/>
      <point x="1212" y="178"/>
      <point x="1193" y="168"/>
      <point x="1176" y="174" type="curve" smooth="yes"/>
      <point x="1154" y="181"/>
      <point x="1128" y="184"/>
      <point x="1102" y="184" type="curve" smooth="yes"/>
      <point x="1052" y="184"/>
      <point x="1020" y="150"/>
      <point x="1021" y="112" type="curve" smooth="yes"/>
      <point x="1022" y="82"/>
      <point x="1044" y="56"/>
      <point x="1081" y="56" type="curve" smooth="yes"/>
      <point x="1130" y="56"/>
      <point x="1158" y="106"/>
      <point x="1158" y="171" type="curve" smooth="yes"/>
      <point x="1158" y="316"/>
      <point x="1053" y="404"/>
      <point x="965" y="404" type="curve" smooth="yes"/>
      <point x="892" y="404"/>
      <point x="856" y="343"/>
      <point x="856" y="292" type="curve" smooth="yes"/>
      <point x="856" y="232"/>
      <point x="881" y="182"/>
      <point x="881" y="129" type="curve" smooth="yes"/>
      <point x="881" y="48"/>
      <point x="837" y="-6"/>
      <point x="747" y="-6" type="curve" smooth="yes"/>
      <point x="651" y="-6"/>
      <point x="576" y="74"/>
      <point x="517" y="187" type="curve" smooth="yes"/>
      <point x="508" y="202"/>
      <point x="515" y="223"/>
      <point x="531" y="231" type="curve" smooth="yes"/>
      <point x="546" y="240"/>
      <point x="567" y="233"/>
    </contour>
    <component base="knLLA"/>
    <component base="knLLA"/>
  </outline>
</glyph>
<glyph name="knMAc2.following" format="1">
  <advance width="391"/>
  <outline>
    <contour>
      <point x="346" y="57" type="curve" smooth="yes"/>
      <point x="348" y="49"/>
      <point x="350" y="30"/>
      <point x="350" y="13" type="curve" smooth="yes"/>
      <point x="350" y="-59"/>
      <point x="302" y="-127"/>
      <point x="302" y="-187" type="curve" smooth="yes"/>
      <point x="302" y="-220"/>
      <point x="329" y="-245"/>
      <point x="376" y="-245" type="curve" smooth="yes"/>
      <point x="407" y="-245"/>
      <point x="433" y="-226"/>
      <point x="433" y="-200" type="curve" smooth="yes"/>
      <point x="433" y="-173"/>
      <point x="395" y="-152"/>
      <point x="348" y="-152" type="curve" smooth="yes"/>
      <point x="243" y="-152"/>
      <point x="187" y="-213"/>
      <point x="187" y="-275" type="curve" smooth="yes"/>
      <point x="187" y="-341"/>
      <point x="255" y="-388"/>
      <point x="359" y="-388" type="curve" smooth="yes"/>
      <point x="394" y="-388"/>
      <point x="431" y="-383"/>
      <point x="460" y="-370" type="curve" smooth="yes"/>
      <point x="475" y="-364"/>
      <point x="493" y="-371"/>
      <point x="500" y="-386" type="curve" smooth="yes"/>
      <point x="506" y="-401"/>
      <point x="499" y="-419"/>
      <point x="484" y="-426" type="curve" smooth="yes"/>
      <point x="447" y="-441"/>
      <point x="402" y="-448"/>
      <point x="359" y="-448" type="curve" smooth="yes"/>
      <point x="201" y="-448"/>
      <point x="127" y="-363"/>
      <point x="127" y="-275" type="curve" smooth="yes"/>
      <point x="127" y="-191"/>
      <point x="191" y="-92"/>
      <point x="348" y="-92" type="curve" smooth="yes"/>
      <point x="455" y="-92"/>
      <point x="493" y="-155"/>
      <point x="493" y="-200" type="curve" smooth="yes"/>
      <point x="493" y="-254"/>
      <point x="449" y="-305"/>
      <point x="376" y="-305" type="curve" smooth="yes"/>
      <point x="279" y="-305"/>
      <point x="242" y="-248"/>
      <point x="242" y="-187" type="curve" smooth="yes"/>
      <point x="242" y="-127"/>
      <point x="290" y="-59"/>
      <point x="290" y="13" type="curve" smooth="yes"/>
      <point x="290" y="24"/>
      <point x="290" y="35"/>
      <point x="288" y="41" type="curve" smooth="yes"/>
      <point x="284" y="56"/>
      <point x="293" y="73"/>
      <point x="309" y="78" type="curve" smooth="yes"/>
      <point x="324" y="82"/>
      <point x="341" y="73"/>
    </contour>
  </outline>
</glyph>
<glyph name="knNAc2" format="1">
  <advance width="144"/>
  <outline>
    <contour>
      <point x="187" y="-377" type="curve" smooth="yes"/>
      <point x="72" y="-239"/>
      <point x="1" y="-198"/>
      <point x="-75" y="-198" type="curve" smooth="yes"/>
      <point x="-130" y="-198"/>
      <point x="-160" y="-227"/>
      <point x="-160" y="-263" type="curve" smooth="yes"/>
      <point x="-160" y="-302"/>
      <point x="-124" y="-325"/>
      <point x="-73" y="-325" type="curve" smooth="yes"/>
      <point x="20" y="-325"/>
      <point x="85" y="-239"/>
      <point x="85" y="-152" type="curve" smooth="yes"/>
      <point x="85" y="-93"/>
      <point x="68" y="-22"/>
      <point x="47" y="38" type="curve" smooth="yes"/>
      <point x="41" y="53"/>
      <point x="50" y="71"/>
      <point x="65" y="76" type="curve" smooth="yes"/>
      <point x="80" y="82"/>
      <point x="98" y="73"/>
      <point x="103" y="58" type="curve" smooth="yes"/>
      <point x="126" y="-8"/>
      <point x="145" y="-87"/>
      <point x="145" y="-152" type="curve" smooth="yes"/>
      <point x="145" y="-271"/>
      <point x="52" y="-385"/>
      <point x="-73" y="-385" type="curve" smooth="yes"/>
      <point x="-172" y="-385"/>
      <point x="-220" y="-328"/>
      <point x="-220" y="-263" type="curve" smooth="yes"/>
      <point x="-220" y="-201"/>
      <point x="-180" y="-138"/>
      <point x="-75" y="-138" type="curve" smooth="yes"/>
      <point x="13" y="-138"/>
      <point x="98" y="-177"/>
      <point x="233" y="-339" type="curve" smooth="yes"/>
      <point x="243" y="-351"/>
      <point x="242" y="-371"/>
      <point x="229" y="-381" type="curve" smooth="yes"/>
      <point x="217" y="-391"/>
      <point x="197" y="-390"/>
    </contour>
  </outline>
</glyph>
<glyph name="knNGAc2.following" format="1">
  <advance width="400"/>
  <outline>
    <contour>
      <point x="353" y="-256" type="curve" smooth="yes"/>
      <point x="332" y="-256"/>
      <point x="312" y="-240"/>
      <point x="312" y="-214" type="curve" smooth="yes"/>
      <point x="312" y="-192"/>
      <point x="331" y="-173"/>
      <point x="353" y="-173" type="curve" smooth="yes"/>
      <point x="375" y="-173"/>
      <point x="394" y="-192"/>
      <point x="394" y="-214" type="curve" smooth="yes"/>
      <point x="394" y="-240"/>
      <point x="374" y="-256"/>
    </contour>
    <contour>
      <point x="189" y="-195" type="curve" smooth="yes"/>
      <point x="257" y="-87"/>
      <point x="306" y="-64"/>
      <point x="360" y="-64" type="curve" smooth="yes"/>
      <point x="408" y="-64"/>
      <point x="449" y="-89"/>
      <point x="491" y="-141" type="curve" smooth="yes"/>
      <point x="501" y="-154"/>
      <point x="500" y="-173"/>
      <point x="487" y="-183" type="curve" smooth="yes"/>
      <point x="474" y="-193"/>
      <point x="455" y="-192"/>
      <point x="445" y="-179" type="curve" smooth="yes"/>
      <point x="417" y="-145"/>
      <point x="392" y="-124"/>
      <point x="360" y="-124" type="curve" smooth="yes"/>
      <point x="320" y="-124"/>
      <point x="287" y="-151"/>
      <point x="241" y="-227" type="curve" smooth="yes"/>
      <point x="232" y="-241"/>
      <point x="213" y="-245"/>
      <point x="199" y="-237" type="curve" smooth="yes"/>
      <point x="185" y="-228"/>
      <point x="181" y="-209"/>
    </contour>
    <contour>
      <point x="85" y="-117" type="curve" smooth="yes"/>
      <point x="109" y="-103"/>
      <point x="130" y="-99"/>
      <point x="159" y="-99" type="curve" smooth="yes"/>
      <point x="212" y="-99"/>
      <point x="252" y="-136"/>
      <point x="252" y="-183" type="curve" smooth="yes"/>
      <point x="252" y="-218"/>
      <point x="230" y="-245"/>
      <point x="183" y="-275" type="curve" smooth="yes"/>
      <point x="160" y="-291"/>
      <point x="147" y="-311"/>
      <point x="147" y="-330" type="curve" smooth="yes"/>
      <point x="147" y="-350"/>
      <point x="166" y="-363"/>
      <point x="192" y="-363" type="curve" smooth="yes"/>
      <point x="225" y="-363"/>
      <point x="252" y="-340"/>
      <point x="284" y="-311" type="curve" smooth="yes"/>
      <point x="288" y="-307"/>
      <point x="298" y="-303"/>
      <point x="304" y="-303" type="curve" smooth="yes"/>
      <point x="308" y="-303" type="line" smooth="yes"/>
      <point x="315" y="-303"/>
      <point x="325" y="-307"/>
      <point x="330" y="-313" type="curve" smooth="yes"/>
      <point x="359" y="-344"/>
      <point x="386" y="-363"/>
      <point x="419" y="-363" type="curve" smooth="yes"/>
      <point x="448" y="-363"/>
      <point x="466" y="-345"/>
      <point x="466" y="-322" type="curve" smooth="yes"/>
      <point x="466" y="-312"/>
      <point x="464" y="-307"/>
      <point x="462" y="-299" type="curve" smooth="yes"/>
      <point x="458" y="-283"/>
      <point x="467" y="-266"/>
      <point x="483" y="-262" type="curve" smooth="yes"/>
      <point x="499" y="-258"/>
      <point x="516" y="-267"/>
      <point x="520" y="-283" type="curve" smooth="yes"/>
      <point x="524" y="-297"/>
      <point x="526" y="-306"/>
      <point x="526" y="-322" type="curve" smooth="yes"/>
      <point x="526" y="-375"/>
      <point x="490" y="-423"/>
      <point x="419" y="-423" type="curve" smooth="yes"/>
      <point x="372" y="-423"/>
      <point x="329" y="-400"/>
      <point x="286" y="-353" type="curve"/>
      <point x="308" y="-363" type="line"/>
      <point x="304" y="-363" type="line"/>
      <point x="324" y="-355" type="line"/>
      <point x="278" y="-398"/>
      <point x="237" y="-423"/>
      <point x="192" y="-423" type="curve" smooth="yes"/>
      <point x="120" y="-423"/>
      <point x="87" y="-376"/>
      <point x="87" y="-330" type="curve" smooth="yes"/>
      <point x="87" y="-295"/>
      <point x="106" y="-255"/>
      <point x="151" y="-225" type="curve" smooth="yes"/>
      <point x="172" y="-211"/>
      <point x="192" y="-202"/>
      <point x="192" y="-183" type="curve" smooth="yes"/>
      <point x="192" y="-166"/>
      <point x="174" y="-159"/>
      <point x="159" y="-159" type="curve" smooth="yes"/>
      <point x="142" y="-159"/>
      <point x="129" y="-161"/>
      <point x="113" y="-169" type="curve" smooth="yes"/>
      <point x="99" y="-177"/>
      <point x="81" y="-172"/>
      <point x="73" y="-157" type="curve" smooth="yes"/>
      <point x="65" y="-143"/>
      <point x="70" y="-125"/>
    </contour>
    <contour>
      <point x="353" y="-196" type="curve" smooth="yes"/>
      <point x="344" y="-196"/>
      <point x="334" y="-202"/>
      <point x="334" y="-214" type="curve" smooth="yes"/>
      <point x="334" y="-224"/>
      <point x="343" y="-233"/>
      <point x="353" y="-233" type="curve" smooth="yes"/>
      <point x="363" y="-233"/>
      <point x="372" y="-224"/>
      <point x="372" y="-214" type="curve" smooth="yes"/>
      <point x="372" y="-202"/>
      <point x="362" y="-196"/>
    </contour>
  </outline>
</glyph>
<glyph name="knNGAc2" format="1">
  <advance width="0"/>
  <outline>
    <contour>
      <point x="-27" y="-256" type="curve" smooth="yes"/>
      <point x="-48" y="-256"/>
      <point x="-68" y="-240"/>
      <point x="-68" y="-214" type="curve" smooth="yes"/>
      <point x="-68" y="-192"/>
      <point x="-49" y="-173"/>
      <point x="-27" y="-173" type="curve" smooth="yes"/>
      <point x="-5" y="-173"/>
      <point x="14" y="-192"/>
      <point x="14" y="-214" type="curve" smooth="yes"/>
      <point x="14" y="-240"/>
      <point x="-6" y="-256"/>
    </contour>
    <contour>
      <point x="-191" y="-195" type="curve" smooth="yes"/>
      <point x="-123" y="-87"/>
      <point x="-74" y="-64"/>
      <point x="-20" y="-64" type="curve" smooth="yes"/>
      <point x="28" y="-64"/>
      <point x="69" y="-89"/>
      <point x="111" y="-141" type="curve" smooth="yes"/>
      <point x="121" y="-154"/>
      <point x="120" y="-173"/>
      <point x="107" y="-183" type="curve" smooth="yes"/>
      <point x="94" y="-193"/>
      <point x="75" y="-192"/>
      <point x="65" y="-179" type="curve" smooth="yes"/>
      <point x="37" y="-145"/>
      <point x="12" y="-124"/>
      <point x="-20" y="-124" type="curve" smooth="yes"/>
      <point x="-60" y="-124"/>
      <point x="-93" y="-151"/>
      <point x="-139" y="-227" type="curve" smooth="yes"/>
      <point x="-148" y="-241"/>
      <point x="-167" y="-245"/>
      <point x="-181" y="-237" type="curve" smooth="yes"/>
      <point x="-195" y="-228"/>
      <point x="-199" y="-209"/>
    </contour>
    <contour>
      <point x="-295" y="-117" type="curve" smooth="yes"/>
      <point x="-271" y="-103"/>
      <point x="-250" y="-99"/>
      <point x="-221" y="-99" type="curve" smooth="yes"/>
      <point x="-168" y="-99"/>
      <point x="-128" y="-136"/>
      <point x="-128" y="-183" type="curve" smooth="yes"/>
      <point x="-128" y="-218"/>
      <point x="-150" y="-245"/>
      <point x="-197" y="-275" type="curve" smooth="yes"/>
      <point x="-220" y="-291"/>
      <point x="-233" y="-311"/>
      <point x="-233" y="-330" type="curve" smooth="yes"/>
      <point x="-233" y="-350"/>
      <point x="-214" y="-363"/>
      <point x="-188" y="-363" type="curve" smooth="yes"/>
      <point x="-155" y="-363"/>
      <point x="-128" y="-340"/>
      <point x="-96" y="-311" type="curve" smooth="yes"/>
      <point x="-92" y="-307"/>
      <point x="-82" y="-303"/>
      <point x="-76" y="-303" type="curve" smooth="yes"/>
      <point x="-72" y="-303" type="line" smooth="yes"/>
      <point x="-65" y="-303"/>
      <point x="-55" y="-307"/>
      <point x="-50" y="-313" type="curve" smooth="yes"/>
      <point x="-21" y="-344"/>
      <point x="6" y="-363"/>
      <point x="39" y="-363" type="curve" smooth="yes"/>
      <point x="68" y="-363"/>
      <point x="86" y="-345"/>
      <point x="86" y="-322" type="curve" smooth="yes"/>
      <point x="86" y="-312"/>
      <point x="84" y="-307"/>
      <point x="82" y="-299" type="curve" smooth="yes"/>
      <point x="78" y="-283"/>
      <point x="87" y="-266"/>
      <point x="103" y="-262" type="curve" smooth="yes"/>
      <point x="119" y="-258"/>
      <point x="136" y="-267"/>
      <point x="140" y="-283" type="curve" smooth="yes"/>
      <point x="144" y="-297"/>
      <point x="146" y="-306"/>
      <point x="146" y="-322" type="curve" smooth="yes"/>
      <point x="146" y="-375"/>
      <point x="110" y="-423"/>
      <point x="39" y="-423" type="curve" smooth="yes"/>
      <point x="-8" y="-423"/>
      <point x="-51" y="-400"/>
      <point x="-94" y="-353" type="curve"/>
      <point x="-72" y="-363" type="line"/>
      <point x="-76" y="-363" type="line"/>
      <point x="-56" y="-355" type="line"/>
      <point x="-102" y="-398"/>
      <point x="-143" y="-423"/>
      <point x="-188" y="-423" type="curve" smooth="yes"/>
      <point x="-260" y="-423"/>
      <point x="-293" y="-376"/>
      <point x="-293" y="-330" type="curve" smooth="yes"/>
      <point x="-293" y="-295"/>
      <point x="-274" y="-255"/>
      <point x="-229" y="-225" type="curve" smooth="yes"/>
      <point x="-208" y="-211"/>
      <point x="-188" y="-202"/>
      <point x="-188" y="-183" type="curve" smooth="yes"/>
      <point x="-188" y="-166"/>
      <point x="-206" y="-159"/>
      <point x="-221" y="-159" type="curve" smooth="yes"/>
      <point x="-238" y="-159"/>
      <point x="-251" y="-161"/>
      <point x="-267" y="-169" type="curve" smooth="yes"/>
      <point x="-281" y="-177"/>
      <point x="-299" y="-172"/>
      <point x="-307" y="-157" type="curve" smooth="yes"/>
      <point x="-315" y="-143"/>
      <point x="-310" y="-125"/>
    </contour>
    <contour>
      <point x="-27" y="-196" type="curve" smooth="yes"/>
      <point x="-36" y="-196"/>
      <point x="-46" y="-202"/>
      <point x="-46" y="-214" type="curve" smooth="yes"/>
      <point x="-46" y="-224"/>
      <point x="-37" y="-233"/>
      <point x="-27" y="-233" type="curve" smooth="yes"/>
      <point x="-17" y="-233"/>
      <point x="-8" y="-224"/>
      <point x="-8" y="-214" type="curve" smooth="yes"/>
      <point x="-8" y="-202"/>
      <point x="-18" y="-196"/>
    </contour>
  </outline>
</glyph>
<glyph name="knNNAc2" format="1">
  <advance width="0"/>
  <outline>
    <contour>
      <point x="-199" y="-294" type="curve" smooth="yes"/>
      <point x="-224" y="-300"/>
      <point x="-244" y="-315"/>
      <point x="-244" y="-336" type="curve" smooth="yes"/>
      <point x="-244" y="-363"/>
      <point x="-212" y="-372"/>
      <point x="-182" y="-373" type="curve" smooth="yes"/>
      <point x="-166" y="-374"/>
      <point x="-152" y="-388"/>
      <point x="-153" y="-404" type="curve" smooth="yes"/>
      <point x="-154" y="-420"/>
      <point x="-168" y="-434"/>
      <point x="-184" y="-433" type="curve" smooth="yes"/>
      <point x="-262" y="-430"/>
      <point x="-304" y="-389"/>
      <point x="-304" y="-336" type="curve" smooth="yes"/>
      <point x="-304" y="-291"/>
      <point x="-272" y="-248"/>
      <point x="-211" y="-236" type="curve" smooth="yes"/>
      <point x="-195" y="-232"/>
      <point x="-179" y="-243"/>
      <point x="-176" y="-259" type="curve" smooth="yes"/>
      <point x="-172" y="-275"/>
      <point x="-183" y="-291"/>
    </contour>
    <contour>
      <point x="101" y="-338" type="curve" smooth="yes"/>
      <point x="84" y="-324"/>
      <point x="64" y="-311"/>
      <point x="36" y="-311" type="curve" smooth="yes"/>
      <point x="13" y="-311"/>
      <point x="-2" y="-326"/>
      <point x="-2" y="-344" type="curve" smooth="yes"/>
      <point x="-2" y="-363"/>
      <point x="17" y="-374"/>
      <point x="36" y="-374" type="curve" smooth="yes"/>
      <point x="78" y="-374"/>
      <point x="99" y="-336"/>
      <point x="99" y="-268" type="curve" smooth="yes"/>
      <point x="99" y="-199"/>
      <point x="71" y="-157"/>
      <point x="26" y="-157" type="curve" smooth="yes"/>
      <point x="-8" y="-157"/>
      <point x="-31" y="-179"/>
      <point x="-52" y="-207" type="curve" smooth="yes"/>
      <point x="-57" y="-214"/>
      <point x="-68" y="-219"/>
      <point x="-76" y="-219" type="curve" smooth="yes"/>
      <point x="-78" y="-219" type="line" smooth="yes"/>
      <point x="-86" y="-219"/>
      <point x="-96" y="-214"/>
      <point x="-101" y="-208" type="curve" smooth="yes"/>
      <point x="-123" y="-181"/>
      <point x="-147" y="-157"/>
      <point x="-188" y="-157" type="curve" smooth="yes"/>
      <point x="-218" y="-157"/>
      <point x="-238" y="-174"/>
      <point x="-237" y="-196" type="curve" smooth="yes"/>
      <point x="-236" y="-214"/>
      <point x="-223" y="-226"/>
      <point x="-196" y="-237" type="curve" smooth="yes"/>
      <point x="-181" y="-244"/>
      <point x="-174" y="-262"/>
      <point x="-180" y="-277" type="curve" smooth="yes"/>
      <point x="-187" y="-292"/>
      <point x="-205" y="-299"/>
      <point x="-220" y="-293" type="curve" smooth="yes"/>
      <point x="-279" y="-268"/>
      <point x="-296" y="-236"/>
      <point x="-297" y="-198" type="curve" smooth="yes"/>
      <point x="-298" y="-148"/>
      <point x="-264" y="-97"/>
      <point x="-188" y="-97" type="curve" smooth="yes"/>
      <point x="-127" y="-97"/>
      <point x="-89" y="-129"/>
      <point x="-55" y="-170" type="curve"/>
      <point x="-78" y="-159" type="line"/>
      <point x="-76" y="-159" type="line"/>
      <point x="-100" y="-171" type="line"/>
      <point x="-67" y="-127"/>
      <point x="-26" y="-97"/>
      <point x="26" y="-97" type="curve" smooth="yes"/>
      <point x="95" y="-97"/>
      <point x="159" y="-141"/>
      <point x="159" y="-268" type="curve" smooth="yes"/>
      <point x="159" y="-400"/>
      <point x="102" y="-434"/>
      <point x="36" y="-434" type="curve" smooth="yes"/>
      <point x="-23" y="-434"/>
      <point x="-62" y="-393"/>
      <point x="-62" y="-344" type="curve"/>
      <point x="-62" y="-296"/>
      <point x="-29" y="-251"/>
      <point x="36" y="-251" type="curve" smooth="yes"/>
      <point x="80" y="-251"/>
      <point x="110" y="-270"/>
      <point x="137" y="-290" type="curve" smooth="yes"/>
      <point x="150" y="-300"/>
      <point x="153" y="-320"/>
      <point x="143" y="-332" type="curve" smooth="yes"/>
      <point x="133" y="-345"/>
      <point x="113" y="-348"/>
    </contour>
  </outline>
</glyph>
<glyph name="knNYAc2.following" format="1">
  <advance width="400"/>
  <outline>
    <contour>
      <point x="411" y="-169" type="curve" smooth="yes"/>
      <point x="437" y="-128"/>
      <point x="472" y="-97"/>
      <point x="519" y="-97" type="curve" smooth="yes"/>
      <point x="580" y="-97"/>
      <point x="614" y="-144"/>
      <point x="614" y="-188" type="curve" smooth="yes"/>
      <point x="614" y="-203"/>
      <point x="612" y="-215"/>
      <point x="608" y="-231" type="curve" smooth="yes"/>
      <point x="605" y="-247"/>
      <point x="588" y="-257"/>
      <point x="572" y="-253" type="curve" smooth="yes"/>
      <point x="556" y="-250"/>
      <point x="546" y="-233"/>
      <point x="550" y="-217" type="curve" smooth="yes"/>
      <point x="552" y="-207"/>
      <point x="554" y="-199"/>
      <point x="554" y="-188" type="curve" smooth="yes"/>
      <point x="554" y="-172"/>
      <point x="540" y="-157"/>
      <point x="519" y="-157" type="curve" smooth="yes"/>
      <point x="492" y="-157"/>
      <point x="475" y="-180"/>
      <point x="461" y="-201" type="curve" smooth="yes"/>
      <point x="452" y="-215"/>
      <point x="433" y="-219"/>
      <point x="420" y="-210" type="curve" smooth="yes"/>
      <point x="406" y="-201"/>
      <point x="402" y="-182"/>
    </contour>
    <contour>
      <point x="372" y="-454" type="curve" smooth="yes"/>
      <point x="344" y="-371"/>
      <point x="294" y="-318"/>
      <point x="240" y="-318" type="curve" smooth="yes"/>
      <point x="215" y="-318"/>
      <point x="197" y="-328"/>
      <point x="196" y="-345" type="curve" smooth="yes"/>
      <point x="195" y="-363"/>
      <point x="218" y="-369"/>
      <point x="240" y="-369" type="curve" smooth="yes"/>
      <point x="334" y="-369"/>
      <point x="406" y="-275"/>
      <point x="406" y="-212" type="curve" smooth="yes"/>
      <point x="406" y="-178"/>
      <point x="388" y="-153"/>
      <point x="358" y="-153" type="curve" smooth="yes"/>
      <point x="323" y="-153"/>
      <point x="303" y="-176"/>
      <point x="284" y="-207" type="curve" smooth="yes"/>
      <point x="279" y="-215"/>
      <point x="267" y="-221"/>
      <point x="258" y="-221" type="curve" smooth="yes"/>
      <point x="255" y="-221" type="line" smooth="yes"/>
      <point x="246" y="-221"/>
      <point x="234" y="-215"/>
      <point x="229" y="-207" type="curve" smooth="yes"/>
      <point x="210" y="-176"/>
      <point x="188" y="-152"/>
      <point x="150" y="-152" type="curve" smooth="yes"/>
      <point x="123" y="-152"/>
      <point x="105" y="-171"/>
      <point x="105" y="-193" type="curve" smooth="yes"/>
      <point x="105" y="-201"/>
      <point x="106" y="-208"/>
      <point x="110" y="-215" type="curve" smooth="yes"/>
      <point x="116" y="-230"/>
      <point x="108" y="-248"/>
      <point x="94" y="-255" type="curve" smooth="yes"/>
      <point x="79" y="-261"/>
      <point x="61" y="-253"/>
      <point x="54" y="-239" type="curve" smooth="yes"/>
      <point x="48" y="-222"/>
      <point x="45" y="-209"/>
      <point x="45" y="-193" type="curve"/>
      <point x="45" y="-143"/>
      <point x="85" y="-92"/>
      <point x="150" y="-92" type="curve" smooth="yes"/>
      <point x="210" y="-92"/>
      <point x="250" y="-124"/>
      <point x="281" y="-175" type="curve"/>
      <point x="255" y="-161" type="line"/>
      <point x="258" y="-161" type="line"/>
      <point x="232" y="-175" type="line"/>
      <point x="265" y="-122"/>
      <point x="301" y="-93"/>
      <point x="358" y="-93" type="curve" smooth="yes"/>
      <point x="420" y="-93"/>
      <point x="466" y="-134"/>
      <point x="466" y="-212" type="curve" smooth="yes"/>
      <point x="466" y="-297"/>
      <point x="370" y="-429"/>
      <point x="240" y="-429" type="curve" smooth="yes"/>
      <point x="160" y="-429"/>
      <point x="135" y="-385"/>
      <point x="136" y="-343" type="curve" smooth="yes"/>
      <point x="137" y="-302"/>
      <point x="163" y="-258"/>
      <point x="240" y="-258" type="curve" smooth="yes"/>
      <point x="312" y="-258"/>
      <point x="388" y="-315"/>
      <point x="428" y="-436" type="curve" smooth="yes"/>
      <point x="434" y="-451"/>
      <point x="425" y="-468"/>
      <point x="409" y="-473" type="curve" smooth="yes"/>
      <point x="394" y="-479"/>
      <point x="377" y="-470"/>
    </contour>
  </outline>
</glyph>
<glyph name="knPHAc2.following" format="1">
  <advance width="399"/>
  <outline>
    <contour>
      <point x="206" y="-254" type="curve" smooth="yes"/>
      <point x="235" y="-288"/>
      <point x="262" y="-308"/>
      <point x="292" y="-308" type="curve" smooth="yes"/>
      <point x="335" y="-308"/>
      <point x="347" y="-267"/>
      <point x="347" y="-212" type="curve" smooth="yes"/>
      <point x="347" y="-144"/>
      <point x="327" y="-58"/>
      <point x="296" y="39" type="curve" smooth="yes"/>
      <point x="291" y="54"/>
      <point x="300" y="72"/>
      <point x="316" y="77" type="curve" smooth="yes"/>
      <point x="331" y="82"/>
      <point x="349" y="73"/>
      <point x="354" y="57" type="curve" smooth="yes"/>
      <point x="387" y="-46"/>
      <point x="407" y="-140"/>
      <point x="407" y="-212" type="curve" smooth="yes"/>
      <point x="407" y="-327"/>
      <point x="361" y="-368"/>
      <point x="292" y="-368" type="curve" smooth="yes"/>
      <point x="248" y="-368"/>
      <point x="205" y="-346"/>
      <point x="160" y="-294" type="curve" smooth="yes"/>
      <point x="150" y="-281"/>
      <point x="151" y="-262"/>
      <point x="163" y="-251" type="curve" smooth="yes"/>
      <point x="176" y="-241"/>
      <point x="195" y="-242"/>
    </contour>
    <contour>
      <point x="62" y="-221" type="curve" smooth="yes"/>
      <point x="40" y="-232"/>
      <point x="23" y="-250"/>
      <point x="23" y="-272" type="curve" smooth="yes"/>
      <point x="23" y="-293"/>
      <point x="41" y="-310"/>
      <point x="69" y="-310" type="curve" smooth="yes"/>
      <point x="105" y="-310"/>
      <point x="131" y="-285"/>
      <point x="157" y="-254" type="curve" smooth="yes"/>
      <point x="168" y="-242"/>
      <point x="187" y="-241"/>
      <point x="200" y="-251" type="curve" smooth="yes"/>
      <point x="212" y="-262"/>
      <point x="213" y="-281"/>
      <point x="203" y="-294" type="curve" smooth="yes"/>
      <point x="163" y="-339"/>
      <point x="121" y="-370"/>
      <point x="69" y="-370" type="curve" smooth="yes"/>
      <point x="-3" y="-370"/>
      <point x="-37" y="-321"/>
      <point x="-37" y="-272" type="curve"/>
      <point x="-37" y="-230"/>
      <point x="-12" y="-192"/>
      <point x="34" y="-167" type="curve" smooth="yes"/>
      <point x="48" y="-160"/>
      <point x="67" y="-166"/>
      <point x="75" y="-180" type="curve" smooth="yes"/>
      <point x="82" y="-194"/>
      <point x="76" y="-213"/>
    </contour>
    <contour>
      <point x="212" y="-430" type="curve" smooth="yes"/>
      <point x="212" y="-496" type="line" smooth="yes"/>
      <point x="212" y="-512"/>
      <point x="198" y="-526"/>
      <point x="182" y="-526" type="curve" smooth="yes"/>
      <point x="166" y="-526"/>
      <point x="152" y="-512"/>
      <point x="152" y="-496" type="curve" smooth="yes"/>
      <point x="152" y="-430" type="line" smooth="yes"/>
      <point x="152" y="-414"/>
      <point x="166" y="-400"/>
      <point x="182" y="-400" type="curve" smooth="yes"/>
      <point x="198" y="-400"/>
      <point x="212" y="-414"/>
    </contour>
  </outline>
</glyph>
<glyph name="knPHI" format="1">
  <advance width="726"/>
  <outline>
    <contour>
      <point x="397" y="-89" type="curve" smooth="yes"/>
      <point x="397" y="-192" type="line" smooth="yes"/>
      <point x="397" y="-210"/>
      <point x="382" y="-225"/>
      <point x="364" y="-225" type="curve" smooth="yes"/>
      <point x="346" y="-225"/>
      <point x="331" y="-210"/>
      <point x="331" y="-192" type="curve" smooth="yes"/>
      <point x="331" y="-89" type="line" smooth="yes"/>
      <point x="331" y="-71"/>
      <point x="346" y="-56"/>
      <point x="364" y="-56" type="curve" smooth="yes"/>
      <point x="382" y="-56"/>
      <point x="397" y="-71"/>
    </contour>
    <contour>
      <point x="404" y="146" type="curve" smooth="yes"/>
      <point x="438" y="92"/>
      <point x="476" y="60"/>
      <point x="537" y="60" type="curve" smooth="yes"/>
      <point x="589" y="60"/>
      <point x="619" y="96"/>
      <point x="619" y="145" type="curve" smooth="yes"/>
      <point x="619" y="175"/>
      <point x="610" y="204"/>
      <point x="600" y="226" type="curve" smooth="yes"/>
      <point x="593" y="242"/>
      <point x="600" y="262"/>
      <point x="616" y="270" type="curve" smooth="yes"/>
      <point x="632" y="277"/>
      <point x="652" y="270"/>
      <point x="660" y="254" type="curve" smooth="yes"/>
      <point x="674" y="224"/>
      <point x="685" y="185"/>
      <point x="685" y="145" type="curve" smooth="yes"/>
      <point x="685" y="56"/>
      <point x="629" y="-6"/>
      <point x="537" y="-6" type="curve" smooth="yes"/>
      <point x="452" y="-6"/>
      <point x="398" y="34"/>
      <point x="348" y="110" type="curve" smooth="yes"/>
      <point x="339" y="125"/>
      <point x="343" y="146"/>
      <point x="358" y="156" type="curve" smooth="yes"/>
      <point x="373" y="165"/>
      <point x="394" y="161"/>
    </contour>
    <contour>
      <point x="194" y="187" type="curve" smooth="yes"/>
      <point x="152" y="181"/>
      <point x="126" y="156"/>
      <point x="126" y="122" type="curve" smooth="yes"/>
      <point x="126" y="84"/>
      <point x="162" y="58"/>
      <point x="212" y="58" type="curve" smooth="yes"/>
      <point x="269" y="58"/>
      <point x="305" y="89"/>
      <point x="344" y="147" type="curve" smooth="yes"/>
      <point x="354" y="161"/>
      <point x="375" y="165"/>
      <point x="390" y="155" type="curve" smooth="yes"/>
      <point x="404" y="145"/>
      <point x="408" y="124"/>
      <point x="398" y="109" type="curve" smooth="yes"/>
      <point x="343" y="29"/>
      <point x="291" y="-8"/>
      <point x="212" y="-8" type="curve" smooth="yes"/>
      <point x="110" y="-8"/>
      <point x="60" y="54"/>
      <point x="60" y="122" type="curve"/>
      <point x="60" y="184"/>
      <point x="102" y="241"/>
      <point x="184" y="253" type="curve" smooth="yes"/>
      <point x="202" y="255"/>
      <point x="219" y="242"/>
      <point x="222" y="225" type="curve" smooth="yes"/>
      <point x="224" y="207"/>
      <point x="211" y="190"/>
    </contour>
    <component base="knsignI" xOffset="685"/>
    <component base="knsignI" xOffset="685"/>
  </outline>
</glyph>
<glyph name="knPHU" format="1">
  <advance width="957"/>
  <outline>
    <contour>
      <point x="431" y="104" type="curve" smooth="yes"/>
      <point x="493" y="-22"/>
      <point x="560" y="-80"/>
      <point x="659" y="-80" type="curve" smooth="yes"/>
      <point x="772" y="-80"/>
      <point x="839" y="5"/>
      <point x="839" y="144" type="curve" smooth="yes"/>
      <point x="839" y="240"/>
      <point x="802" y="322"/>
      <point x="738" y="394" type="curve" smooth="yes"/>
      <point x="726" y="407"/>
      <point x="728" y="429"/>
      <point x="741" y="441" type="curve" smooth="yes"/>
      <point x="754" y="453"/>
      <point x="776" y="451"/>
      <point x="788" y="438" type="curve" smooth="yes"/>
      <point x="862" y="354"/>
      <point x="905" y="256"/>
      <point x="905" y="144" type="curve" smooth="yes"/>
      <point x="905" y="-47"/>
      <point x="806" y="-146"/>
      <point x="659" y="-146" type="curve" smooth="yes"/>
      <point x="538" y="-146"/>
      <point x="451" y="-84"/>
      <point x="371" y="74" type="curve" smooth="yes"/>
      <point x="364" y="90"/>
      <point x="370" y="111"/>
      <point x="386" y="119" type="curve" smooth="yes"/>
      <point x="402" y="126"/>
      <point x="423" y="120"/>
    </contour>
    <component base="knPHA"/>
    <component base="knPHA"/>
  </outline>
</glyph>
<glyph name="knRRAc2.following" format="1">
  <advance width="400"/>
  <outline>
    <contour>
      <point x="210" y="-200" type="curve" smooth="yes"/>
      <point x="432" y="-200" type="line" smooth="yes"/>
      <point x="448" y="-200"/>
      <point x="462" y="-214"/>
      <point x="462" y="-230" type="curve" smooth="yes"/>
      <point x="462" y="-246"/>
      <point x="448" y="-260"/>
      <point x="432" y="-260" type="curve" smooth="yes"/>
      <point x="210" y="-260" type="line" smooth="yes"/>
      <point x="194" y="-260"/>
      <point x="180" y="-246"/>
      <point x="180" y="-230" type="curve" smooth="yes"/>
      <point x="180" y="-214"/>
      <point x="194" y="-200"/>
    </contour>
    <contour>
      <point x="159" y="-177" type="curve" smooth="yes"/>
      <point x="172" y="-191"/>
      <point x="189" y="-200"/>
      <point x="209" y="-200" type="curve" smooth="yes"/>
      <point x="225" y="-200"/>
      <point x="240" y="-190"/>
      <point x="240" y="-171" type="curve" smooth="yes"/>
      <point x="240" y="-153"/>
      <point x="228" y="-142"/>
      <point x="209" y="-142" type="curve" smooth="yes"/>
      <point x="171" y="-142"/>
      <point x="149" y="-199"/>
      <point x="149" y="-254" type="curve" smooth="yes"/>
      <point x="149" y="-308"/>
      <point x="177" y="-345"/>
      <point x="221" y="-345" type="curve" smooth="yes"/>
      <point x="256" y="-345"/>
      <point x="276" y="-330"/>
      <point x="295" y="-305" type="curve" smooth="yes"/>
      <point x="300" y="-298"/>
      <point x="311" y="-293"/>
      <point x="319" y="-293" type="curve" smooth="yes"/>
      <point x="322" y="-293" type="line" smooth="yes"/>
      <point x="330" y="-293"/>
      <point x="341" y="-298"/>
      <point x="346" y="-304" type="curve" smooth="yes"/>
      <point x="365" y="-329"/>
      <point x="385" y="-345"/>
      <point x="420" y="-345" type="curve" smooth="yes"/>
      <point x="464" y="-345"/>
      <point x="492" y="-308"/>
      <point x="492" y="-254" type="curve" smooth="yes"/>
      <point x="492" y="-199"/>
      <point x="470" y="-142"/>
      <point x="432" y="-142" type="curve" smooth="yes"/>
      <point x="413" y="-142"/>
      <point x="402" y="-153"/>
      <point x="402" y="-171" type="curve" smooth="yes"/>
      <point x="402" y="-190"/>
      <point x="416" y="-200"/>
      <point x="432" y="-200" type="curve" smooth="yes"/>
      <point x="453" y="-200"/>
      <point x="469" y="-191"/>
      <point x="482" y="-177" type="curve" smooth="yes"/>
      <point x="493" y="-166"/>
      <point x="513" y="-165"/>
      <point x="525" y="-176" type="curve" smooth="yes"/>
      <point x="536" y="-187"/>
      <point x="537" y="-207"/>
      <point x="526" y="-219" type="curve" smooth="yes"/>
      <point x="501" y="-245"/>
      <point x="471" y="-260"/>
      <point x="432" y="-260" type="curve" smooth="yes"/>
      <point x="382" y="-260"/>
      <point x="342" y="-227"/>
      <point x="342" y="-171" type="curve" smooth="yes"/>
      <point x="342" y="-117"/>
      <point x="375" y="-82"/>
      <point x="432" y="-82" type="curve" smooth="yes"/>
      <point x="490" y="-82"/>
      <point x="552" y="-143"/>
      <point x="552" y="-254" type="curve" smooth="yes"/>
      <point x="552" y="-354"/>
      <point x="492" y="-405"/>
      <point x="420" y="-405" type="curve" smooth="yes"/>
      <point x="363" y="-405"/>
      <point x="331" y="-383"/>
      <point x="298" y="-342" type="curve"/>
      <point x="322" y="-353" type="line"/>
      <point x="319" y="-353" type="line"/>
      <point x="343" y="-341" type="line"/>
      <point x="312" y="-382"/>
      <point x="278" y="-405"/>
      <point x="221" y="-405" type="curve" smooth="yes"/>
      <point x="149" y="-405"/>
      <point x="89" y="-354"/>
      <point x="89" y="-254" type="curve" smooth="yes"/>
      <point x="89" y="-143"/>
      <point x="151" y="-82"/>
      <point x="209" y="-82" type="curve" smooth="yes"/>
      <point x="266" y="-82"/>
      <point x="300" y="-117"/>
      <point x="300" y="-171" type="curve" smooth="yes"/>
      <point x="300" y="-226"/>
      <point x="259" y="-260"/>
      <point x="209" y="-260" type="curve" smooth="yes"/>
      <point x="171" y="-260"/>
      <point x="140" y="-245"/>
      <point x="115" y="-219" type="curve" smooth="yes"/>
      <point x="104" y="-207"/>
      <point x="105" y="-187"/>
      <point x="116" y="-176" type="curve" smooth="yes"/>
      <point x="128" y="-165"/>
      <point x="148" y="-166"/>
    </contour>
  </outline>
</glyph>
<glyph name="knSHA.base" format="1">
  <advance width="624"/>
  <outline>
    <contour>
      <point x="79" y="470" type="curve" smooth="yes"/>
      <point x="428" y="470" type="line" smooth="yes"/>
      <point x="446" y="470"/>
      <point x="461" y="455"/>
      <point x="461" y="437" type="curve" smooth="yes"/>
      <point x="461" y="419"/>
      <point x="446" y="404"/>
      <point x="428" y="404" type="curve" smooth="yes"/>
      <point x="79" y="404" type="line" smooth="yes"/>
      <point x="61" y="404"/>
      <point x="46" y="419"/>
      <point x="46" y="437" type="curve" smooth="yes"/>
      <point x="46" y="455"/>
      <point x="61" y="470"/>
    </contour>
    <contour>
      <point x="139" y="362" type="curve" smooth="yes"/>
      <point x="165" y="422"/>
      <point x="213" y="456"/>
      <point x="264" y="456" type="curve" smooth="yes"/>
      <point x="327" y="456"/>
      <point x="385" y="408"/>
      <point x="385" y="335" type="curve" smooth="yes"/>
      <point x="385" y="265"/>
      <point x="345" y="208"/>
      <point x="250" y="197" type="curve" smooth="yes"/>
      <point x="178" y="190"/>
      <point x="153" y="181"/>
      <point x="138" y="167" type="curve" smooth="yes"/>
      <point x="129" y="157"/>
      <point x="125" y="145"/>
      <point x="125" y="130" type="curve" smooth="yes"/>
      <point x="125" y="91"/>
      <point x="183" y="60"/>
      <point x="284" y="60" type="curve" smooth="yes"/>
      <point x="373" y="60"/>
      <point x="434" y="90"/>
      <point x="457" y="113" type="curve" smooth="yes"/>
      <point x="479" y="135"/>
      <point x="495" y="165"/>
      <point x="495" y="201" type="curve" smooth="yes"/>
      <point x="495" y="273"/>
      <point x="442" y="358"/>
      <point x="332" y="407" type="curve" smooth="yes"/>
      <point x="315" y="414"/>
      <point x="308" y="434"/>
      <point x="315" y="450" type="curve" smooth="yes"/>
      <point x="322" y="467"/>
      <point x="342" y="474"/>
      <point x="358" y="467" type="curve" smooth="yes"/>
      <point x="502" y="404"/>
      <point x="561" y="291"/>
      <point x="561" y="201" type="curve" smooth="yes"/>
      <point x="561" y="145"/>
      <point x="537" y="101"/>
      <point x="503" y="67" type="curve" smooth="yes"/>
      <point x="474" y="38"/>
      <point x="399" y="-6"/>
      <point x="284" y="-6" type="curve" smooth="yes"/>
      <point x="87" y="-6"/>
      <point x="59" y="75"/>
      <point x="59" y="130" type="curve"/>
      <point x="59" y="165"/>
      <point x="71" y="193"/>
      <point x="92" y="213" type="curve" smooth="yes"/>
      <point x="111" y="233"/>
      <point x="142" y="252"/>
      <point x="242" y="263" type="curve" smooth="yes"/>
      <point x="293" y="268"/>
      <point x="319" y="295"/>
      <point x="319" y="335" type="curve" smooth="yes"/>
      <point x="319" y="368"/>
      <point x="293" y="390"/>
      <point x="264" y="390" type="curve" smooth="yes"/>
      <point x="235" y="390"/>
      <point x="213" y="366"/>
      <point x="199" y="336" type="curve" smooth="yes"/>
      <point x="192" y="319"/>
      <point x="172" y="312"/>
      <point x="156" y="319" type="curve" smooth="yes"/>
      <point x="139" y="326"/>
      <point x="132" y="346"/>
    </contour>
  </outline>
</glyph>
<glyph name="knSSAc2.following" format="1">
  <advance width="399"/>
  <outline>
    <contour>
      <point x="403" y="-147" type="curve" smooth="yes"/>
      <point x="465" y="-392" type="line" smooth="yes"/>
      <point x="469" y="-407"/>
      <point x="459" y="-424"/>
      <point x="443" y="-428" type="curve" smooth="yes"/>
      <point x="428" y="-432"/>
      <point x="411" y="-422"/>
      <point x="407" y="-406" type="curve" smooth="yes"/>
      <point x="345" y="-161" type="line" smooth="yes"/>
      <point x="341" y="-146"/>
      <point x="351" y="-129"/>
      <point x="367" y="-125" type="curve" smooth="yes"/>
      <point x="382" y="-121"/>
      <point x="399" y="-131"/>
    </contour>
    <contour>
      <point x="212" y="-430" type="curve" smooth="yes"/>
      <point x="212" y="-496" type="line" smooth="yes"/>
      <point x="212" y="-512"/>
      <point x="198" y="-526"/>
      <point x="182" y="-526" type="curve" smooth="yes"/>
      <point x="166" y="-526"/>
      <point x="152" y="-512"/>
      <point x="152" y="-496" type="curve" smooth="yes"/>
      <point x="152" y="-430" type="line" smooth="yes"/>
      <point x="152" y="-414"/>
      <point x="166" y="-400"/>
      <point x="182" y="-400" type="curve" smooth="yes"/>
      <point x="198" y="-400"/>
      <point x="212" y="-414"/>
    </contour>
    <contour>
      <point x="206" y="-254" type="curve" smooth="yes"/>
      <point x="235" y="-288"/>
      <point x="262" y="-308"/>
      <point x="292" y="-308" type="curve" smooth="yes"/>
      <point x="335" y="-308"/>
      <point x="347" y="-267"/>
      <point x="347" y="-212" type="curve" smooth="yes"/>
      <point x="347" y="-144"/>
      <point x="327" y="-58"/>
      <point x="296" y="39" type="curve" smooth="yes"/>
      <point x="291" y="54"/>
      <point x="300" y="72"/>
      <point x="316" y="77" type="curve" smooth="yes"/>
      <point x="331" y="82"/>
      <point x="349" y="73"/>
      <point x="354" y="57" type="curve" smooth="yes"/>
      <point x="387" y="-46"/>
      <point x="407" y="-140"/>
      <point x="407" y="-212" type="curve" smooth="yes"/>
      <point x="407" y="-327"/>
      <point x="361" y="-368"/>
      <point x="292" y="-368" type="curve" smooth="yes"/>
      <point x="248" y="-368"/>
      <point x="205" y="-346"/>
      <point x="160" y="-294" type="curve" smooth="yes"/>
      <point x="150" y="-281"/>
      <point x="151" y="-262"/>
      <point x="163" y="-251" type="curve" smooth="yes"/>
      <point x="176" y="-241"/>
      <point x="195" y="-242"/>
    </contour>
    <contour>
      <point x="62" y="-221" type="curve" smooth="yes"/>
      <point x="40" y="-232"/>
      <point x="23" y="-250"/>
      <point x="23" y="-272" type="curve" smooth="yes"/>
      <point x="23" y="-293"/>
      <point x="41" y="-310"/>
      <point x="69" y="-310" type="curve" smooth="yes"/>
      <point x="105" y="-310"/>
      <point x="131" y="-285"/>
      <point x="157" y="-254" type="curve" smooth="yes"/>
      <point x="168" y="-242"/>
      <point x="187" y="-241"/>
      <point x="200" y="-251" type="curve" smooth="yes"/>
      <point x="212" y="-262"/>
      <point x="213" y="-281"/>
      <point x="203" y="-294" type="curve" smooth="yes"/>
      <point x="163" y="-339"/>
      <point x="121" y="-370"/>
      <point x="69" y="-370" type="curve" smooth="yes"/>
      <point x="-3" y="-370"/>
      <point x="-37" y="-321"/>
      <point x="-37" y="-272" type="curve"/>
      <point x="-37" y="-230"/>
      <point x="-12" y="-192"/>
      <point x="34" y="-167" type="curve" smooth="yes"/>
      <point x="48" y="-160"/>
      <point x="67" y="-166"/>
      <point x="75" y="-180" type="curve" smooth="yes"/>
      <point x="82" y="-194"/>
      <point x="76" y="-213"/>
    </contour>
    <component base="knPa" xOffset="-141" yOffset="-329"/>
    <component base="knPa" xOffset="-141" yOffset="-329"/>
  </outline>
</glyph>
<glyph name="knSSI" format="1">
  <advance width="730"/>
  <outline>
    <contour>
      <point x="404" y="146" type="curve" smooth="yes"/>
      <point x="438" y="92"/>
      <point x="476" y="60"/>
      <point x="537" y="60" type="curve" smooth="yes"/>
      <point x="589" y="60"/>
      <point x="619" y="96"/>
      <point x="619" y="145" type="curve" smooth="yes"/>
      <point x="619" y="175"/>
      <point x="610" y="204"/>
      <point x="600" y="226" type="curve" smooth="yes"/>
      <point x="593" y="242"/>
      <point x="600" y="262"/>
      <point x="616" y="270" type="curve" smooth="yes"/>
      <point x="632" y="277"/>
      <point x="652" y="270"/>
      <point x="660" y="254" type="curve" smooth="yes"/>
      <point x="674" y="224"/>
      <point x="685" y="185"/>
      <point x="685" y="145" type="curve" smooth="yes"/>
      <point x="685" y="56"/>
      <point x="629" y="-6"/>
      <point x="537" y="-6" type="curve" smooth="yes"/>
      <point x="452" y="-6"/>
      <point x="398" y="34"/>
      <point x="348" y="110" type="curve" smooth="yes"/>
      <point x="339" y="125"/>
      <point x="343" y="146"/>
      <point x="358" y="156" type="curve" smooth="yes"/>
      <point x="373" y="165"/>
      <point x="394" y="161"/>
    </contour>
    <contour>
      <point x="194" y="187" type="curve" smooth="yes"/>
      <point x="152" y="181"/>
      <point x="126" y="156"/>
      <point x="126" y="122" type="curve" smooth="yes"/>
      <point x="126" y="84"/>
      <point x="162" y="58"/>
      <point x="212" y="58" type="curve" smooth="yes"/>
      <point x="269" y="58"/>
      <point x="305" y="89"/>
      <point x="344" y="147" type="curve" smooth="yes"/>
      <point x="354" y="161"/>
      <point x="375" y="165"/>
      <point x="390" y="155" type="curve" smooth="yes"/>
      <point x="404" y="145"/>
      <point x="408" y="124"/>
      <point x="398" y="109" type="curve" smooth="yes"/>
      <point x="343" y="29"/>
      <point x="291" y="-8"/>
      <point x="212" y="-8" type="curve" smooth="yes"/>
      <point x="110" y="-8"/>
      <point x="60" y="54"/>
      <point x="60" y="122" type="curve"/>
      <point x="60" y="184"/>
      <point x="102" y="241"/>
      <point x="184" y="253" type="curve" smooth="yes"/>
      <point x="202" y="255"/>
      <point x="219" y="242"/>
      <point x="222" y="225" type="curve" smooth="yes"/>
      <point x="224" y="207"/>
      <point x="211" y="190"/>
    </contour>
    <contour>
      <point x="530" y="212" type="curve" smooth="yes"/>
      <point x="678" y="-11" type="line" smooth="yes"/>
      <point x="688" y="-26"/>
      <point x="684" y="-47"/>
      <point x="669" y="-56" type="curve" smooth="yes"/>
      <point x="654" y="-66"/>
      <point x="633" y="-62"/>
      <point x="624" y="-47" type="curve" smooth="yes"/>
      <point x="476" y="176" type="line" smooth="yes"/>
      <point x="466" y="191"/>
      <point x="470" y="212"/>
      <point x="485" y="221" type="curve" smooth="yes"/>
      <point x="500" y="231"/>
      <point x="521" y="227"/>
    </contour>
    <component base="knsignI" xOffset="685"/>
    <component base="knsignI" xOffset="685"/>
  </outline>
</glyph>
<glyph name="knTTAc2.following" format="1">
  <advance width="412"/>
  <outline>
    <contour>
      <point x="23" y="-186" type="curve" smooth="yes"/>
      <point x="43" y="-195"/>
      <point x="60" y="-202"/>
      <point x="83" y="-202" type="curve" smooth="yes"/>
      <point x="104" y="-202"/>
      <point x="120" y="-188"/>
      <point x="120" y="-168" type="curve" smooth="yes"/>
      <point x="120" y="-151"/>
      <point x="105" y="-139"/>
      <point x="85" y="-139" type="curve" smooth="yes"/>
      <point x="50" y="-139"/>
      <point x="31" y="-184"/>
      <point x="31" y="-231" type="curve" smooth="yes"/>
      <point x="31" y="-279"/>
      <point x="59" y="-318"/>
      <point x="101" y="-318" type="curve" smooth="yes"/>
      <point x="134" y="-318"/>
      <point x="156" y="-302"/>
      <point x="180" y="-269" type="curve" smooth="yes"/>
      <point x="185" y="-263"/>
      <point x="196" y="-257"/>
      <point x="204" y="-257" type="curve" smooth="yes"/>
      <point x="208" y="-257" type="line" smooth="yes"/>
      <point x="216" y="-257"/>
      <point x="227" y="-262"/>
      <point x="232" y="-269" type="curve" smooth="yes"/>
      <point x="257" y="-300"/>
      <point x="280" y="-318"/>
      <point x="314" y="-318" type="curve" smooth="yes"/>
      <point x="351" y="-318"/>
      <point x="371" y="-289"/>
      <point x="371" y="-252" type="curve" smooth="yes"/>
      <point x="371" y="-212"/>
      <point x="355" y="-184"/>
      <point x="333" y="-162" type="curve" smooth="yes"/>
      <point x="315" y="-144"/>
      <point x="289" y="-129"/>
      <point x="261" y="-121" type="curve" smooth="yes"/>
      <point x="246" y="-116"/>
      <point x="237" y="-99"/>
      <point x="241" y="-83" type="curve" smooth="yes"/>
      <point x="246" y="-68"/>
      <point x="263" y="-59"/>
      <point x="279" y="-63" type="curve" smooth="yes"/>
      <point x="317" y="-75"/>
      <point x="351" y="-96"/>
      <point x="375" y="-120" type="curve" smooth="yes"/>
      <point x="407" y="-152"/>
      <point x="431" y="-194"/>
      <point x="431" y="-252" type="curve" smooth="yes"/>
      <point x="431" y="-327"/>
      <point x="385" y="-378"/>
      <point x="314" y="-378" type="curve" smooth="yes"/>
      <point x="262" y="-378"/>
      <point x="223" y="-356"/>
      <point x="184" y="-305" type="curve"/>
      <point x="208" y="-317" type="line"/>
      <point x="204" y="-317" type="line"/>
      <point x="228" y="-305" type="line"/>
      <point x="190" y="-358"/>
      <point x="154" y="-378"/>
      <point x="101" y="-378" type="curve" smooth="yes"/>
      <point x="29" y="-378"/>
      <point x="-29" y="-321"/>
      <point x="-29" y="-231" type="curve" smooth="yes"/>
      <point x="-29" y="-132"/>
      <point x="28" y="-79"/>
      <point x="85" y="-79" type="curve" smooth="yes"/>
      <point x="145" y="-79"/>
      <point x="180" y="-123"/>
      <point x="180" y="-168" type="curve" smooth="yes"/>
      <point x="180" y="-222"/>
      <point x="142" y="-262"/>
      <point x="83" y="-262" type="curve" smooth="yes"/>
      <point x="50" y="-262"/>
      <point x="27" y="-253"/>
      <point x="-1" y="-240" type="curve" smooth="yes"/>
      <point x="-16" y="-234"/>
      <point x="-23" y="-215"/>
      <point x="-16" y="-201" type="curve" smooth="yes"/>
      <point x="-10" y="-186"/>
      <point x="9" y="-179"/>
    </contour>
    <contour>
      <point x="267" y="-62" type="curve" smooth="yes"/>
      <point x="292" y="-55"/>
      <point x="309" y="-39"/>
      <point x="309" y="-13" type="curve" smooth="yes"/>
      <point x="309" y="2"/>
      <point x="302" y="16"/>
      <point x="292" y="29" type="curve" smooth="yes"/>
      <point x="282" y="41"/>
      <point x="283" y="61"/>
      <point x="296" y="71" type="curve" smooth="yes"/>
      <point x="308" y="81"/>
      <point x="328" y="80"/>
      <point x="338" y="67" type="curve" smooth="yes"/>
      <point x="358" y="44"/>
      <point x="369" y="14"/>
      <point x="369" y="-13" type="curve" smooth="yes"/>
      <point x="369" y="-65"/>
      <point x="340" y="-103"/>
      <point x="283" y="-120" type="curve" smooth="yes"/>
      <point x="268" y="-124"/>
      <point x="251" y="-115"/>
      <point x="246" y="-99" type="curve" smooth="yes"/>
      <point x="242" y="-84"/>
      <point x="251" y="-67"/>
    </contour>
  </outline>
</glyph>
<glyph name="knTTHAc2.following" format="1">
  <advance width="400"/>
  <outline>
    <contour>
      <point x="304" y="-60" type="curve" smooth="yes"/>
      <point x="423" y="-60"/>
      <point x="482" y="-158"/>
      <point x="482" y="-235" type="curve" smooth="yes"/>
      <point x="482" y="-313"/>
      <point x="423" y="-404"/>
      <point x="306" y="-404" type="curve" smooth="yes"/>
      <point x="184" y="-404"/>
      <point x="129" y="-314"/>
      <point x="129" y="-235" type="curve" smooth="yes"/>
      <point x="129" y="-159"/>
      <point x="186" y="-60"/>
    </contour>
    <contour>
      <point x="303" y="-274" type="curve" smooth="yes"/>
      <point x="282" y="-274"/>
      <point x="262" y="-258"/>
      <point x="262" y="-232" type="curve" smooth="yes"/>
      <point x="262" y="-210"/>
      <point x="281" y="-191"/>
      <point x="303" y="-191" type="curve" smooth="yes"/>
      <point x="325" y="-191"/>
      <point x="344" y="-210"/>
      <point x="344" y="-232" type="curve" smooth="yes"/>
      <point x="344" y="-258"/>
      <point x="324" y="-274"/>
    </contour>
    <contour>
      <point x="304" y="-120" type="curve" smooth="yes"/>
      <point x="226" y="-120"/>
      <point x="189" y="-185"/>
      <point x="189" y="-235" type="curve" smooth="yes"/>
      <point x="189" y="-288"/>
      <point x="228" y="-344"/>
      <point x="306" y="-344" type="curve" smooth="yes"/>
      <point x="381" y="-344"/>
      <point x="422" y="-287"/>
      <point x="422" y="-235" type="curve" smooth="yes"/>
      <point x="422" y="-184"/>
      <point x="383" y="-120"/>
    </contour>
    <contour>
      <point x="303" y="-214" type="curve" smooth="yes"/>
      <point x="294" y="-214"/>
      <point x="284" y="-220"/>
      <point x="284" y="-232" type="curve" smooth="yes"/>
      <point x="284" y="-242"/>
      <point x="293" y="-251"/>
      <point x="303" y="-251" type="curve" smooth="yes"/>
      <point x="313" y="-251"/>
      <point x="322" y="-242"/>
      <point x="322" y="-232" type="curve" smooth="yes"/>
      <point x="322" y="-220"/>
      <point x="312" y="-214"/>
    </contour>
  </outline>
</glyph>
<glyph name="knTTI" format="1">
  <advance width="743"/>
  <outline>
    <contour>
      <point x="213" y="460" type="curve" smooth="yes"/>
      <point x="186" y="453"/>
      <point x="172" y="435"/>
      <point x="171" y="417" type="curve" smooth="yes"/>
      <point x="170" y="400"/>
      <point x="180" y="379"/>
      <point x="213" y="371" type="curve" smooth="yes"/>
      <point x="230" y="367"/>
      <point x="241" y="348"/>
      <point x="237" y="331" type="curve" smooth="yes"/>
      <point x="233" y="314"/>
      <point x="214" y="303"/>
      <point x="197" y="307" type="curve" smooth="yes"/>
      <point x="116" y="327"/>
      <point x="104" y="380"/>
      <point x="105" y="419" type="curve" smooth="yes"/>
      <point x="106" y="459"/>
      <point x="132" y="507"/>
      <point x="195" y="524" type="curve" smooth="yes"/>
      <point x="213" y="528"/>
      <point x="231" y="518"/>
      <point x="236" y="501" type="curve" smooth="yes"/>
      <point x="240" y="483"/>
      <point x="230" y="465"/>
    </contour>
    <contour>
      <point x="135" y="266" type="curve" smooth="yes"/>
      <point x="154" y="239"/>
      <point x="176" y="221"/>
      <point x="201" y="221" type="curve" smooth="yes"/>
      <point x="225" y="221"/>
      <point x="248" y="236"/>
      <point x="248" y="264" type="curve" smooth="yes"/>
      <point x="248" y="289"/>
      <point x="229" y="306"/>
      <point x="204" y="306" type="curve" smooth="yes"/>
      <point x="161" y="306"/>
      <point x="122" y="244"/>
      <point x="122" y="178" type="curve" smooth="yes"/>
      <point x="122" y="102"/>
      <point x="163" y="60"/>
      <point x="228" y="60" type="curve" smooth="yes"/>
      <point x="286" y="60"/>
      <point x="323" y="92"/>
      <point x="349" y="143" type="curve" smooth="yes"/>
      <point x="354" y="153"/>
      <point x="367" y="161"/>
      <point x="378" y="161" type="curve" smooth="yes"/>
      <point x="383" y="161" type="line" smooth="yes"/>
      <point x="393" y="161"/>
      <point x="406" y="154"/>
      <point x="411" y="145" type="curve" smooth="yes"/>
      <point x="443" y="93"/>
      <point x="482" y="60"/>
      <point x="543" y="60" type="curve" smooth="yes"/>
      <point x="595" y="60"/>
      <point x="626" y="92"/>
      <point x="626" y="141" type="curve" smooth="yes"/>
      <point x="626" y="170"/>
      <point x="618" y="192"/>
      <point x="597" y="213" type="curve" smooth="yes"/>
      <point x="570" y="240"/>
      <point x="536" y="253"/>
      <point x="505" y="253" type="curve" smooth="yes"/>
      <point x="487" y="253"/>
      <point x="472" y="268"/>
      <point x="472" y="286" type="curve" smooth="yes"/>
      <point x="472" y="304"/>
      <point x="487" y="319"/>
      <point x="505" y="319" type="curve" smooth="yes"/>
      <point x="552" y="319"/>
      <point x="602" y="300"/>
      <point x="643" y="259" type="curve" smooth="yes"/>
      <point x="678" y="224"/>
      <point x="692" y="188"/>
      <point x="692" y="141" type="curve" smooth="yes"/>
      <point x="692" y="52"/>
      <point x="637" y="-6"/>
      <point x="543" y="-6" type="curve" smooth="yes"/>
      <point x="458" y="-6"/>
      <point x="399" y="37"/>
      <point x="355" y="111" type="curve"/>
      <point x="383" y="95" type="line"/>
      <point x="378" y="95" type="line"/>
      <point x="407" y="113" type="line"/>
      <point x="369" y="38"/>
      <point x="312" y="-6"/>
      <point x="228" y="-6" type="curve" smooth="yes"/>
      <point x="127" y="-6"/>
      <point x="56" y="54"/>
      <point x="56" y="178" type="curve"/>
      <point x="56" y="296"/>
      <point x="139" y="372"/>
      <point x="204" y="372" type="curve" smooth="yes"/>
      <point x="269" y="372"/>
      <point x="314" y="325"/>
      <point x="314" y="264" type="curve" smooth="yes"/>
      <point x="314" y="198"/>
      <point x="263" y="155"/>
      <point x="201" y="155" type="curve" smooth="yes"/>
      <point x="158" y="155"/>
      <point x="114" y="179"/>
      <point x="81" y="230" type="curve" smooth="yes"/>
      <point x="71" y="245"/>
      <point x="75" y="266"/>
      <point x="90" y="275" type="curve" smooth="yes"/>
      <point x="105" y="285"/>
      <point x="126" y="281"/>
    </contour>
    <contour>
      <point x="481" y="317" type="curve" smooth="yes"/>
      <point x="574" y="324"/>
      <point x="626" y="377"/>
      <point x="626" y="457" type="curve" smooth="yes"/>
      <point x="626" y="505"/>
      <point x="593" y="558"/>
      <point x="542" y="558" type="curve" smooth="yes"/>
      <point x="511" y="558"/>
      <point x="488" y="538"/>
      <point x="488" y="511" type="curve" smooth="yes"/>
      <point x="488" y="486"/>
      <point x="510" y="467"/>
      <point x="536" y="467" type="curve" smooth="yes"/>
      <point x="570" y="467"/>
      <point x="596" y="485"/>
      <point x="623" y="520" type="curve" smooth="yes"/>
      <point x="634" y="534"/>
      <point x="655" y="537"/>
      <point x="669" y="526" type="curve" smooth="yes"/>
      <point x="683" y="515"/>
      <point x="686" y="494"/>
      <point x="675" y="480" type="curve" smooth="yes"/>
      <point x="632" y="423"/>
      <point x="590" y="401"/>
      <point x="536" y="401" type="curve" smooth="yes"/>
      <point x="470" y="401"/>
      <point x="422" y="450"/>
      <point x="422" y="511" type="curve" smooth="yes"/>
      <point x="422" y="570"/>
      <point x="467" y="624"/>
      <point x="542" y="624" type="curve" smooth="yes"/>
      <point x="626" y="624"/>
      <point x="692" y="543"/>
      <point x="692" y="457" type="curve" smooth="yes"/>
      <point x="692" y="343"/>
      <point x="622" y="262"/>
      <point x="487" y="251" type="curve" smooth="yes"/>
      <point x="469" y="250"/>
      <point x="453" y="264"/>
      <point x="451" y="281" type="curve" smooth="yes"/>
      <point x="450" y="299"/>
      <point x="464" y="315"/>
    </contour>
  </outline>
</glyph>
<glyph name="knVAc2" format="1">
  <advance width="0"/>
  <outline>
    <contour>
      <point x="-166" y="-110" type="curve" smooth="yes"/>
      <point x="2" y="-110" type="line" smooth="yes"/>
      <point x="42" y="-110"/>
      <point x="66" y="-98"/>
      <point x="84" y="-72" type="curve" smooth="yes"/>
      <point x="93" y="-58"/>
      <point x="112" y="-54"/>
      <point x="125" y="-63" type="curve" smooth="yes"/>
      <point x="139" y="-72"/>
      <point x="143" y="-91"/>
      <point x="134" y="-104" type="curve" smooth="yes"/>
      <point x="106" y="-148"/>
      <point x="68" y="-170"/>
      <point x="2" y="-170" type="curve" smooth="yes"/>
      <point x="-166" y="-170" type="line" smooth="yes"/>
      <point x="-182" y="-170"/>
      <point x="-196" y="-156"/>
      <point x="-196" y="-140" type="curve" smooth="yes"/>
      <point x="-196" y="-124"/>
      <point x="-182" y="-110"/>
    </contour>
    <contour>
      <point x="-60" y="-311" type="curve" smooth="yes"/>
      <point x="-31" y="-345"/>
      <point x="-4" y="-365"/>
      <point x="31" y="-365" type="curve" smooth="yes"/>
      <point x="64" y="-365"/>
      <point x="81" y="-342"/>
      <point x="81" y="-308" type="curve" smooth="yes"/>
      <point x="81" y="-263"/>
      <point x="47" y="-214"/>
      <point x="-46" y="-169" type="curve" smooth="yes"/>
      <point x="-61" y="-162"/>
      <point x="-67" y="-143"/>
      <point x="-60" y="-129" type="curve" smooth="yes"/>
      <point x="-53" y="-114"/>
      <point x="-34" y="-108"/>
      <point x="-20" y="-115" type="curve" smooth="yes"/>
      <point x="109" y="-178"/>
      <point x="141" y="-249"/>
      <point x="141" y="-308" type="curve" smooth="yes"/>
      <point x="141" y="-384"/>
      <point x="100" y="-425"/>
      <point x="31" y="-425" type="curve" smooth="yes"/>
      <point x="-20" y="-425"/>
      <point x="-61" y="-401"/>
      <point x="-106" y="-351" type="curve" smooth="yes"/>
      <point x="-116" y="-339"/>
      <point x="-115" y="-319"/>
      <point x="-103" y="-308" type="curve" smooth="yes"/>
      <point x="-91" y="-298"/>
      <point x="-71" y="-299"/>
    </contour>
    <contour>
      <point x="-213" y="-288" type="curve" smooth="yes"/>
      <point x="-230" y="-298"/>
      <point x="-239" y="-313"/>
      <point x="-239" y="-329" type="curve" smooth="yes"/>
      <point x="-239" y="-350"/>
      <point x="-223" y="-367"/>
      <point x="-196" y="-367" type="curve" smooth="yes"/>
      <point x="-162" y="-367"/>
      <point x="-133" y="-346"/>
      <point x="-110" y="-314" type="curve" smooth="yes"/>
      <point x="-101" y="-300"/>
      <point x="-82" y="-297"/>
      <point x="-69" y="-307" type="curve" smooth="yes"/>
      <point x="-55" y="-316"/>
      <point x="-52" y="-335"/>
      <point x="-62" y="-348" type="curve" smooth="yes"/>
      <point x="-97" y="-398"/>
      <point x="-144" y="-427"/>
      <point x="-196" y="-427" type="curve" smooth="yes"/>
      <point x="-267" y="-427"/>
      <point x="-299" y="-380"/>
      <point x="-299" y="-329" type="curve" smooth="yes"/>
      <point x="-299" y="-293"/>
      <point x="-282" y="-258"/>
      <point x="-243" y="-236" type="curve" smooth="yes"/>
      <point x="-229" y="-228"/>
      <point x="-210" y="-233"/>
      <point x="-202" y="-247" type="curve" smooth="yes"/>
      <point x="-194" y="-261"/>
      <point x="-199" y="-280"/>
    </contour>
  </outline>
</glyph>
<glyph name="knYAc2.following" format="1">
  <advance width="459"/>
  <outline>
    <contour>
      <point x="104" y="-132" type="curve" smooth="yes"/>
      <point x="125" y="-116"/>
      <point x="148" y="-108"/>
      <point x="175" y="-108" type="curve" smooth="yes"/>
      <point x="227" y="-108"/>
      <point x="265" y="-148"/>
      <point x="265" y="-196" type="curve" smooth="yes"/>
      <point x="265" y="-216"/>
      <point x="261" y="-233"/>
      <point x="252" y="-256" type="curve" smooth="yes"/>
      <point x="247" y="-269"/>
      <point x="244" y="-284"/>
      <point x="244" y="-298" type="curve" smooth="yes"/>
      <point x="244" y="-312"/>
      <point x="249" y="-325"/>
      <point x="260" y="-337" type="curve" smooth="yes"/>
      <point x="271" y="-347"/>
      <point x="289" y="-356"/>
      <point x="312" y="-356" type="curve" smooth="yes"/>
      <point x="367" y="-356"/>
      <point x="402" y="-314"/>
      <point x="402" y="-259" type="curve" smooth="yes"/>
      <point x="402" y="-221"/>
      <point x="381" y="-182"/>
      <point x="338" y="-138" type="curve" smooth="yes"/>
      <point x="294" y="-95"/>
      <point x="273" y="-56"/>
      <point x="273" y="-13" type="curve" smooth="yes"/>
      <point x="273" y="44"/>
      <point x="312" y="91"/>
      <point x="374" y="91" type="curve" smooth="yes"/>
      <point x="399" y="91"/>
      <point x="418" y="84"/>
      <point x="436" y="74" type="curve" smooth="yes"/>
      <point x="450" y="65"/>
      <point x="454" y="46"/>
      <point x="446" y="32" type="curve" smooth="yes"/>
      <point x="437" y="18"/>
      <point x="418" y="14"/>
      <point x="404" y="22" type="curve" smooth="yes"/>
      <point x="396" y="28"/>
      <point x="387" y="31"/>
      <point x="374" y="31" type="curve" smooth="yes"/>
      <point x="348" y="31"/>
      <point x="333" y="10"/>
      <point x="333" y="-13" type="curve" smooth="yes"/>
      <point x="333" y="-42"/>
      <point x="352" y="-67"/>
      <point x="380" y="-96" type="curve" smooth="yes"/>
      <point x="439" y="-154"/>
      <point x="462" y="-209"/>
      <point x="462" y="-259" type="curve" smooth="yes"/>
      <point x="462" y="-350"/>
      <point x="401" y="-416"/>
      <point x="312" y="-416" type="curve" smooth="yes"/>
      <point x="269" y="-416"/>
      <point x="237" y="-399"/>
      <point x="218" y="-379" type="curve" smooth="yes"/>
      <point x="193" y="-355"/>
      <point x="184" y="-326"/>
      <point x="184" y="-298" type="curve" smooth="yes"/>
      <point x="184" y="-276"/>
      <point x="189" y="-255"/>
      <point x="196" y="-236" type="curve" smooth="yes"/>
      <point x="201" y="-221"/>
      <point x="205" y="-210"/>
      <point x="205" y="-196" type="curve" smooth="yes"/>
      <point x="205" y="-180"/>
      <point x="191" y="-168"/>
      <point x="175" y="-168" type="curve" smooth="yes"/>
      <point x="162" y="-168"/>
      <point x="151" y="-172"/>
      <point x="140" y="-180" type="curve" smooth="yes"/>
      <point x="127" y="-190"/>
      <point x="108" y="-187"/>
      <point x="98" y="-174" type="curve" smooth="yes"/>
      <point x="88" y="-161"/>
      <point x="91" y="-142"/>
    </contour>
  </outline>
</glyph>
<glyph name="uni2126" format="1">
  <advance width="640"/>
  <outline>
    <contour>
      <point x="419" y="60" type="curve" smooth="yes"/>
      <point x="563" y="60" type="line" smooth="yes"/>
      <point x="581" y="60"/>
      <point x="596" y="45"/>
      <point x="596" y="27" type="curve" smooth="yes"/>
      <point x="596" y="9"/>
      <point x="581" y="-6"/>
      <point x="563" y="-6" type="curve" smooth="yes"/>
      <point x="419" y="-6" type="line" smooth="yes"/>
      <point x="401" y="-6"/>
      <point x="386" y="9"/>
      <point x="386" y="27" type="curve" smooth="yes"/>
      <point x="386" y="45"/>
      <point x="401" y="60"/>
    </contour>
    <contour>
      <point x="92" y="60" type="curve" smooth="yes"/>
      <point x="237" y="60" type="line" smooth="yes"/>
      <point x="255" y="60"/>
      <point x="270" y="45"/>
      <point x="270" y="27" type="curve" smooth="yes"/>
      <point x="270" y="9"/>
      <point x="255" y="-6"/>
      <point x="237" y="-6" type="curve" smooth="yes"/>
      <point x="92" y="-6" type="line" smooth="yes"/>
      <point x="74" y="-6"/>
      <point x="59" y="9"/>
      <point x="59" y="27" type="curve" smooth="yes"/>
      <point x="59" y="45"/>
      <point x="74" y="60"/>
    </contour>
    <contour>
      <point x="386" y="49" type="curve" smooth="yes"/>
      <point x="447" y="116"/>
      <point x="511" y="201"/>
      <point x="511" y="302" type="curve" smooth="yes"/>
      <point x="511" y="406"/>
      <point x="432" y="488"/>
      <point x="322" y="488" type="curve" smooth="yes"/>
      <point x="202" y="488"/>
      <point x="129" y="406"/>
      <point x="129" y="302" type="curve" smooth="yes"/>
      <point x="129" y="198"/>
      <point x="200" y="116"/>
      <point x="268" y="51" type="curve" smooth="yes"/>
      <point x="281" y="38"/>
      <point x="281" y="17"/>
      <point x="269" y="4" type="curve" smooth="yes"/>
      <point x="256" y="-9"/>
      <point x="235" y="-9"/>
      <point x="222" y="3" type="curve" smooth="yes"/>
      <point x="142" y="82"/>
      <point x="63" y="180"/>
      <point x="63" y="302" type="curve"/>
      <point x="63" y="442"/>
      <point x="160" y="554"/>
      <point x="322" y="554" type="curve" smooth="yes"/>
      <point x="470" y="554"/>
      <point x="577" y="442"/>
      <point x="577" y="302" type="curve" smooth="yes"/>
      <point x="577" y="185"/>
      <point x="507" y="84"/>
      <point x="434" y="5" type="curve" smooth="yes"/>
      <point x="422" y="-8"/>
      <point x="401" y="-9"/>
      <point x="388" y="3" type="curve" smooth="yes"/>
      <point x="375" y="15"/>
      <point x="374" y="36"/>
    </contour>
  </outline>
</glyph>
